<?xml version="1.0" standalone="no"?>
<!DOCTYPE svg PUBLIC "-//W3C//DTD SVG 20010904//EN"
 "http://www.w3.org/TR/2001/REC-SVG-20010904/DTD/svg10.dtd">
<svg version="1.0" xmlns="http://www.w3.org/2000/svg"
 width="888.000000pt" height="888.000000pt" viewBox="0 0 888.000000 888.000000"
 preserveAspectRatio="xMidYMid meet">
<metadata>
Created by potrace 1.14, written by Peter Selinger 2001-2017
</metadata>
<g transform="translate(0.000000,888.000000) scale(0.100000,-0.100000)"
fill="#000000" stroke="none">
<path d="M6622 7708 c-7 -7 -12 -9 -12 -5 0 14 -65 -26 -93 -56 -52 -59 -61
-148 -23 -253 53 -144 143 -228 336 -312 72 -32 199 -55 305 -55 125 -1 153 4
212 39 73 42 94 120 58 209 -21 51 -101 162 -163 224 -97 98 -175 148 -302
191 -78 26 -297 39 -318 18z"/>
<path d="M6399 7523 c0 -5 -3 -17 -6 -28 -12 -51 -5 -173 15 -232 25 -74 82
-197 94 -201 4 -2 8 -8 8 -13 0 -19 126 -186 177 -235 113 -108 224 -132 322
-70 27 17 60 39 75 50 34 24 53 15 75 -38 11 -24 23 -46 28 -49 27 -16 117 65
156 142 26 49 49 112 44 122 -1 3 4 13 12 22 21 27 -10 32 -82 14 -38 -9 -106
-15 -177 -15 -300 1 -577 142 -676 344 -14 29 -28 67 -30 86 -11 69 -32 131
-35 101z"/>
<path d="M6340 7339 c-7 -29 -14 -68 -15 -89 -1 -20 -4 -41 -6 -46 -6 -13 -3
-218 5 -299 10 -101 103 -359 136 -380 6 -3 10 -11 10 -16 0 -5 -19 0 -42 12
-34 17 -60 22 -118 22 -41 -1 -84 -3 -95 -6 -11 -3 -29 -6 -40 -7 -19 -1 -19
-1 -2 -14 10 -8 35 -17 55 -21 89 -17 253 -129 286 -197 43 -86 -17 -180 -145
-227 -90 -33 -134 -42 -334 -66 -129 -16 -150 -22 -323 -89 -75 -30 -196 -70
-267 -90 -72 -20 -159 -47 -194 -61 -92 -38 -158 -91 -98 -80 45 9 143 29 190
40 24 6 66 13 112 21 17 2 53 9 80 14 98 19 170 28 283 36 37 2 83 6 102 8 19
3 75 7 123 11 48 3 102 8 120 10 18 2 50 6 72 9 69 9 166 24 190 30 6 2 24 6
40 10 73 17 201 54 230 66 11 4 45 18 75 30 102 42 199 89 255 124 53 35 125
118 107 124 -6 2 -36 -6 -69 -17 -108 -37 -199 -29 -302 26 -97 51 -175 117
-220 183 l-23 35 26 -27 c14 -16 28 -28 32 -28 5 0 19 -11 33 -24 68 -65 248
-126 358 -122 84 3 143 28 199 86 42 42 109 160 103 178 -3 6 -18 4 -39 -6
-45 -22 -128 -51 -166 -59 -38 -7 -131 -7 -169 1 -85 19 -185 94 -266 200 -66
87 -163 319 -212 506 -26 100 -50 206 -50 228 -1 30 -16 8 -27 -39z"/>
<path d="M5869 6983 c-92 -20 -176 -43 -219 -60 -8 -4 -17 -7 -20 -8 -3 -1
-16 -6 -30 -12 -14 -6 -41 -18 -62 -26 -47 -20 -134 -76 -176 -115 l-33 -30
33 -8 c43 -10 47 -11 89 -18 20 -3 48 -10 62 -15 14 -5 27 -7 30 -5 3 3 25 0
48 -6 24 -7 55 -14 69 -17 14 -2 54 -11 90 -19 220 -51 411 -60 568 -28 36 7
41 29 20 99 -6 22 -12 42 -13 45 -9 38 -41 134 -60 176 -17 39 -32 57 -52 65
-46 17 -229 8 -344 -18z"/>
<path d="M6534 6908 c50 -165 235 -371 366 -409 68 -19 166 -19 219 -1 26 10
66 36 92 62 48 48 95 117 85 127 -3 3 -30 -7 -60 -23 -52 -27 -55 -28 -74 -11
-10 9 -19 23 -20 30 -4 43 -16 98 -22 102 -4 3 -26 -19 -49 -49 -96 -124 -170
-136 -291 -47 -47 35 -132 123 -192 199 -27 34 -54 62 -58 62 -5 0 -3 -19 4
-42z"/>
<path d="M5035 6697 c-31 -11 -146 -70 -180 -93 -17 -12 -9 -14 70 -15 185 -1
244 -8 381 -42 197 -49 207 -51 389 -62 54 -3 101 -8 103 -10 3 -2 13 0 23 6
13 7 19 6 19 -1 0 -6 4 -9 9 -6 5 3 38 8 74 11 74 5 125 21 111 35 -5 5 -47
16 -94 24 -147 26 -333 63 -362 72 -9 3 -25 7 -35 9 -10 2 -43 11 -73 20 -175
51 -368 74 -435 52z"/>
<path d="M4869 6566 c-2 -3 -17 -7 -33 -10 -79 -14 -183 -91 -207 -153 -36
-96 17 -113 346 -113 274 0 369 9 565 51 119 26 108 23 214 53 96 27 121 40
78 42 -259 11 -362 26 -527 76 -79 25 -71 23 -145 38 -55 12 -283 24 -291 16z"/>
<path d="M6128 6439 c-15 -4 -29 -5 -31 -2 -3 2 -25 -1 -48 -7 -24 -7 -53 -14
-64 -16 -28 -5 -256 -74 -280 -84 -23 -10 -212 -56 -265 -65 -160 -25 -390
-26 -749 -1 -41 3 -47 -8 -19 -34 84 -80 284 -121 583 -119 248 1 247 0 555
112 69 25 101 31 170 31 124 1 174 -32 186 -120 11 -80 13 -85 37 -79 12 3 33
7 47 9 14 3 25 5 25 6 0 1 8 3 17 5 59 11 125 42 159 74 46 45 51 87 19 152
-48 92 -233 167 -342 138z"/>
<path d="M7323 6427 c-4 -7 -8 -16 -9 -22 -8 -46 -107 -262 -145 -317 -11 -14
-19 -29 -19 -32 0 -3 -16 -28 -35 -55 -19 -26 -35 -53 -35 -60 0 -6 -4 -11
-10 -11 -5 0 -10 -5 -10 -11 0 -6 -8 -23 -18 -37 -21 -30 -45 -93 -38 -99 5
-6 50 -10 169 -18 236 -15 251 -17 474 -91 76 -25 147 -47 158 -49 11 -2 32
-8 48 -14 18 -7 27 -7 27 0 0 16 -34 88 -137 294 -53 105 -101 200 -107 212
-6 13 -14 23 -18 23 -5 0 -8 5 -8 10 0 17 -85 141 -127 186 -61 65 -146 113
-160 91z"/>
<path d="M5889 6199 c-7 -4 -16 -6 -19 -4 -15 9 -135 -45 -360 -161 -128 -67
-275 -121 -402 -150 -10 -2 -27 -6 -38 -9 -39 -10 -65 -15 -105 -20 -22 -4
-53 -8 -70 -11 -16 -3 -41 -7 -55 -9 -26 -4 -118 -16 -160 -20 -62 -7 -209
-26 -230 -30 -9 -2 -43 -6 -75 -10 -33 -4 -69 -9 -80 -11 -10 -2 -37 -6 -60
-9 -36 -5 -86 -14 -180 -31 -16 -3 -48 -10 -70 -16 -22 -5 -47 -11 -56 -13
-31 -6 -165 -46 -224 -67 -133 -47 -362 -173 -540 -297 -33 -23 -71 -49 -85
-59 -14 -9 -36 -27 -50 -39 -14 -13 -28 -23 -32 -23 -3 0 -13 -6 -20 -13 -13
-12 -235 -192 -287 -232 -14 -11 -35 -29 -46 -40 -11 -11 -56 -52 -100 -90
-44 -39 -85 -74 -91 -80 -54 -48 -255 -238 -330 -312 -155 -153 -296 -346
-155 -213 14 14 96 86 200 176 18 16 43 38 55 49 12 11 44 38 70 60 27 22 58
49 70 60 12 11 44 38 70 60 27 22 54 45 60 50 27 26 292 239 391 316 147 114
362 266 430 305 11 6 47 27 80 45 52 30 134 69 240 115 79 33 363 121 450 138
11 2 74 15 140 29 129 28 175 37 217 42 15 2 53 9 85 14 32 6 76 13 98 16 22
3 65 10 95 15 61 10 133 21 167 25 13 2 40 6 60 9 21 4 52 8 68 10 50 7 188
34 255 51 53 13 166 52 263 91 127 52 209 80 258 88 19 3 45 8 58 11 13 2 54
7 90 10 121 10 144 20 175 77 24 44 15 83 -22 102 -30 15 -181 19 -203 5z"/>
<path d="M6945 5976 c-33 -12 -78 -30 -100 -40 -108 -47 -309 -116 -380 -131
-126 -27 -126 -27 -225 -40 -104 -13 -257 -24 -430 -30 -74 -3 -162 -7 -195
-10 -33 -3 -91 -7 -130 -10 -38 -3 -81 -7 -95 -10 -40 -7 -93 -16 -120 -20
-14 -1 -61 -15 -105 -30 -112 -37 -182 -81 -219 -136 -16 -26 -16 -27 21 -54
36 -27 234 -224 298 -296 16 -19 50 -56 74 -84 261 -298 322 -349 421 -354
103 -4 210 41 341 146 86 69 246 253 235 271 -3 5 -18 8 -33 6 -43 -5 -177
-17 -188 -17 -39 1 -126 18 -174 34 -48 15 -279 111 -395 164 -288 130 -364
153 -486 152 -44 0 -82 2 -85 5 -13 13 98 33 180 33 118 -1 168 -18 465 -157
47 -22 126 -58 175 -80 50 -22 99 -44 110 -49 45 -20 112 -41 145 -45 49 -6
150 -5 169 0 9 3 28 7 42 10 60 10 198 83 266 140 40 33 133 129 163 167 19
24 38 46 42 47 4 2 8 10 8 17 0 7 4 15 8 17 11 4 152 207 152 218 0 4 4 10 9
12 10 4 111 158 111 170 0 11 -5 10 -75 -16z"/>
<path d="M7282 5694 c13 -15 34 -39 48 -54 176 -191 227 -246 301 -319 97 -98
127 -123 133 -113 2 4 9 27 16 52 23 86 58 147 119 208 34 33 61 62 61 66 0 3
-8 6 -19 6 -10 0 -41 7 -67 15 -143 43 -422 123 -459 131 -5 1 -28 7 -50 12
-22 6 -55 14 -73 17 l-32 5 22 -26z"/>
<path d="M7926 5420 c-37 -33 -61 -82 -72 -151 -14 -91 -12 -136 14 -239 l8
-35 16 30 c8 17 23 56 32 87 15 49 25 63 69 95 81 59 97 75 97 96 0 41 -83
147 -115 147 -8 0 -30 -14 -49 -30z"/>
<path d="M4904 5398 c-7 -32 -7 -32 -17 -10 -6 12 -14 22 -19 22 -7 0 -61
-106 -98 -195 -36 -87 -132 -389 -145 -455 -7 -40 -15 -101 -20 -155 -16 -181
-46 -263 -132 -355 -17 -19 -55 -59 -83 -89 -27 -30 -50 -58 -50 -63 0 -36
316 65 515 164 104 52 152 88 212 161 28 35 42 103 38 192 -4 120 -2 113 -110
394 -64 167 -96 269 -94 301 0 8 8 -7 18 -35 22 -60 39 -99 135 -298 100 -208
127 -290 132 -403 5 -128 -14 -190 -80 -258 -48 -48 -183 -126 -219 -126 -7 0
-17 -4 -23 -9 -8 -7 -47 -20 -219 -70 -16 -5 -43 -12 -60 -15 -32 -7 -60 -13
-97 -21 -20 -4 -167 -32 -263 -50 -16 -3 -86 -14 -155 -26 -256 -42 -398 -74
-355 -80 77 -11 470 -10 470 1 0 1 18 3 40 5 122 11 172 16 185 20 8 2 47 7
85 11 39 3 86 8 105 10 19 2 89 4 155 5 128 2 175 -11 217 -58 43 -47 38 -115
-18 -225 -14 -27 -23 -52 -20 -55 4 -5 61 22 130 61 137 77 275 359 303 617
14 133 1 399 -24 499 -3 14 -8 34 -10 45 -18 97 -84 251 -147 345 -39 57 -162
182 -207 209 -48 30 -66 27 -75 -11z"/>
<path d="M8038 5180 c-18 -9 -40 -33 -50 -52 -24 -46 -45 -155 -32 -168 5 -5
45 -10 89 -11 44 -2 92 -6 106 -10 l26 -7 -2 77 c-3 71 -34 178 -54 182 -32 7
-56 4 -83 -11z"/>
<path d="M7131 5083 c-35 -15 -79 -67 -158 -185 -89 -136 -140 -193 -205 -234
-35 -23 -255 -136 -268 -139 -13 -3 -148 -71 -175 -88 l-30 -19 35 6 c51 9 64
12 175 40 55 15 109 28 120 31 11 2 30 6 43 9 12 3 26 7 30 10 5 3 19 7 33 9
71 14 444 121 499 144 8 3 17 7 20 7 15 3 85 34 160 70 91 44 170 110 170 143
0 61 -131 155 -265 190 -33 8 -169 13 -184 6z"/>
<path d="M6920 4983 c-49 -17 -167 -84 -259 -146 -104 -69 -159 -110 -526
-392 -302 -231 -404 -299 -572 -380 -56 -28 -102 -53 -103 -56 0 -7 146 -4
175 4 75 20 147 55 195 93 43 35 175 147 191 163 19 18 25 23 126 103 62 50
261 178 276 178 3 0 49 25 102 55 54 30 99 55 102 55 2 0 39 26 81 57 88 65
159 136 208 208 43 63 44 72 4 58z"/>
<path d="M5380 4954 c0 -5 11 -43 24 -84 32 -100 37 -133 42 -280 2 -69 6
-131 9 -138 5 -15 27 -6 60 25 11 10 61 51 110 92 50 41 94 77 98 81 5 4 -9
15 -30 25 -21 9 -54 25 -73 33 -34 16 -160 129 -160 144 0 5 -7 16 -16 26 -9
9 -27 32 -40 51 -13 19 -24 31 -24 25z"/>
<path d="M6545 4915 c-392 -99 -673 -212 -840 -338 -68 -51 -198 -173 -244
-231 -30 -37 -73 -124 -100 -204 -23 -69 -26 -88 -11 -97 14 -9 203 84 410
202 45 26 270 175 324 216 27 20 339 257 361 275 6 4 51 36 100 71 141 101
185 134 185 143 0 11 7 12 -185 -37z"/>
<path d="M8013 4904 c-40 -20 -58 -39 -104 -111 -158 -247 -180 -304 -128
-346 71 -57 296 97 374 258 45 92 41 155 -13 193 -44 32 -75 33 -129 6z"/>
<path d="M7507 4729 c-49 -21 -114 -51 -145 -65 -197 -90 -370 -149 -567 -193
-49 -11 -142 -32 -205 -46 -63 -15 -126 -29 -140 -31 -74 -13 -300 -94 -300
-108 0 -2 39 -28 87 -58 128 -78 220 -181 238 -265 4 -23 33 -101 41 -114 5
-9 96 35 128 62 6 5 50 37 97 72 48 34 142 103 209 152 67 50 154 112 194 139
134 92 291 214 338 263 64 65 152 236 121 232 -5 0 -48 -18 -96 -40z"/>
<path d="M7891 4419 c-45 -13 -90 -43 -191 -125 -378 -308 -459 -348 -955
-473 -347 -87 -446 -124 -515 -192 -39 -38 -68 -99 -48 -99 9 0 110 41 223 91
75 33 257 91 330 105 11 2 29 6 40 9 11 2 52 12 90 21 39 8 79 18 90 20 24 6
51 12 85 18 177 31 345 118 570 295 101 79 309 281 329 319 13 25 8 26 -48 11z"/>
<path d="M6050 4219 c-73 -38 -80 -42 -80 -51 0 -4 -6 -8 -14 -8 -8 0 -16 -3
-18 -7 -1 -5 -28 -27 -58 -50 -30 -23 -68 -53 -85 -68 -16 -15 -41 -35 -53
-46 -13 -10 -21 -22 -18 -27 3 -5 40 -26 83 -46 89 -43 147 -97 221 -207 28
-42 57 -79 65 -82 19 -7 67 19 191 104 117 79 134 93 163 134 21 30 21 31 3
84 -10 29 -22 56 -26 60 -5 3 -22 23 -38 45 -113 151 -242 215 -336 165z"/>
<path d="M1712 4197 c-15 -17 -1 -71 25 -99 56 -59 93 -75 171 -70 47 4 45 60
-6 118 -44 51 -163 84 -190 51z"/>
<path d="M1715 4004 c-36 -43 -59 -84 -51 -91 3 -3 23 6 44 20 39 25 54 57 43
90 -5 14 -12 10 -36 -19z"/>
<path d="M4738 3945 c-2 -2 -37 -5 -78 -8 -41 -4 -85 -8 -96 -11 -12 -2 -39
-7 -60 -10 -22 -4 -68 -11 -104 -17 -82 -14 -228 -20 -496 -21 l-212 -1 12
-26 c6 -14 20 -42 30 -61 11 -19 32 -69 46 -111 34 -95 33 -150 -4 -277 -15
-52 -25 -96 -22 -99 8 -9 161 33 290 79 242 87 487 168 610 202 150 42 216 73
262 123 40 43 49 78 34 131 -13 51 -57 89 -113 97 -60 9 -96 13 -99 10z"/>
<path d="M5665 3878 c-53 -19 -125 -74 -250 -193 -66 -62 -67 -63 -48 -85 41
-48 188 -117 335 -156 74 -19 243 -26 318 -12 74 13 103 34 96 69 -10 53 -92
174 -176 260 -115 118 -187 148 -275 117z"/>
<path d="M3485 3872 c-103 -20 -348 -143 -467 -236 -25 -19 -23 -21 20 -23
163 -9 329 -68 393 -140 22 -26 24 -35 22 -123 -1 -64 2 -97 10 -102 31 -19
150 29 207 85 60 59 84 120 84 209 -1 146 -43 258 -115 310 -25 19 -107 29
-154 20z"/>
<path d="M5251 3576 c-50 -17 -105 -68 -145 -135 -40 -65 -50 -105 -26 -106 8
-1 39 5 68 13 98 24 258 16 362 -20 8 -3 107 -36 220 -73 l205 -69 248 -1
c160 -1 247 2 247 9 0 5 -24 33 -53 61 -58 56 -156 118 -209 133 -18 5 -111 7
-206 5 -210 -4 -256 5 -419 83 -237 113 -245 115 -292 100z"/>
<path d="M2995 3570 c-16 -4 -83 -34 -148 -67 -114 -58 -117 -61 -95 -75 29
-19 296 -147 318 -153 3 -1 30 -9 60 -19 82 -26 100 -29 162 -29 92 1 137 46
132 135 -5 111 -131 194 -309 205 -38 2 -74 5 -80 7 -5 1 -23 -1 -40 -4z"/>
<path d="M8498 3405 c-1 -1 -31 -6 -66 -9 -34 -3 -81 -10 -105 -15 -23 -5 -60
-12 -82 -16 -22 -3 -64 -12 -95 -20 -66 -17 -65 -17 -260 -54 -158 -30 -222
-40 -298 -46 -23 -2 -50 -6 -60 -9 -9 -2 -44 -7 -77 -11 -33 -3 -78 -8 -101
-11 -22 -2 -60 -6 -85 -8 -24 -3 -69 -7 -99 -10 -126 -14 -234 -22 -415 -31
-95 -5 -527 -13 -1005 -20 -310 -4 -459 -10 -467 -19 -5 -5 49 -101 75 -134
38 -49 126 -77 282 -88 290 -22 1938 -21 2350 1 331 17 384 23 480 52 68 21
136 57 173 92 57 53 90 176 68 257 -12 45 -57 77 -121 88 -74 13 -88 14 -92
11z"/>
<path d="M2474 3380 c-72 -17 -105 -30 -198 -77 -63 -32 -90 -47 -96 -53 -3
-3 -21 -16 -40 -30 -68 -48 -102 -83 -87 -92 8 -4 72 -10 143 -13 71 -3 176
-8 234 -11 458 -22 714 -29 978 -25 73 1 79 16 16 38 -38 14 -172 51 -205 58
-73 15 -201 63 -339 128 -180 85 -286 105 -406 77z"/>
<path d="M5148 3300 c-66 -20 -116 -70 -70 -70 10 0 22 -3 26 -7 7 -7 14 -9
91 -18 107 -13 168 -16 387 -19 211 -3 283 3 233 19 -11 4 -31 11 -44 16 -13
6 -54 17 -90 25 -36 8 -73 16 -82 18 -9 3 -34 7 -55 10 -22 4 -46 8 -54 11
-63 18 -296 29 -342 15z"/>
<path d="M498 3161 c-109 -35 -179 -91 -223 -178 -31 -61 -41 -98 -28 -106 19
-12 142 -22 378 -32 134 -6 309 -14 425 -20 52 -2 147 -7 210 -10 63 -3 165
-8 225 -10 61 -2 162 -7 225 -9 142 -7 344 -15 521 -21 74 -3 188 -7 254 -10
66 -3 185 -7 265 -10 80 -3 190 -8 245 -10 55 -2 174 -7 265 -11 91 -3 194 -7
230 -9 36 -2 135 -6 220 -10 148 -6 295 -13 295 -15 0 0 59 -3 130 -5 316 -13
431 -17 443 -16 14 1 27 1 107 2 234 1 362 31 463 106 146 110 173 214 80 310
-34 35 -122 77 -144 69 -7 -3 -15 -2 -18 2 -7 12 -229 4 -326 -12 -14 -3 -45
-7 -70 -10 -25 -3 -56 -8 -70 -11 -25 -5 -55 -10 -120 -19 -79 -12 -186 -28
-201 -31 -34 -7 -137 -19 -269 -31 -134 -12 -311 -16 -840 -16 -582 -1 -812 5
-1050 27 -30 3 -89 7 -130 10 -70 5 -106 8 -255 20 -33 3 -91 7 -130 10 -38 3
-90 8 -115 10 -44 5 -110 11 -200 19 -25 2 -88 9 -140 15 -52 6 -115 13 -140
16 -25 3 -137 7 -250 10 -180 4 -212 2 -262 -14z"/>
<path d="M1092 2359 c-16 -6 -17 -42 -17 -482 l0 -476 30 -3 c16 -2 53 -1 81
0 l51 4 0 479 c0 340 -3 479 -11 480 -44 4 -120 3 -134 -2z"/>
<path d="M2005 2360 l-30 -5 0 -474 c-1 -318 3 -474 10 -477 21 -7 85 -11 85
-5 0 4 15 5 33 3 l34 -4 0 481 0 481 -21 1 c-11 0 -34 2 -51 3 -16 1 -43 -1
-60 -4z"/>
<path d="M7833 2362 c-13 -2 -23 -6 -24 -10 -4 -26 -3 -936 1 -942 5 -8 69
-13 133 -11 l27 1 0 480 c0 377 -3 480 -12 481 -59 3 -107 3 -125 1z"/>
<path d="M8722 2362 l-33 -3 3 -72 3 -72 78 -1 c71 -1 77 1 78 20 4 75 4 108
-2 117 -6 11 -72 16 -127 11z"/>
<path d="M243 2282 c-82 -24 -119 -56 -158 -137 -20 -41 -24 -62 -22 -125 5
-116 50 -186 152 -231 46 -21 67 -22 275 -24 124 -1 231 -3 238 -4 7 0 24 -13
37 -27 34 -37 34 -102 1 -141 l-24 -28 -329 -2 c-180 -1 -332 -2 -338 -2 -11
-1 -13 -147 -2 -157 7 -7 617 -7 665 0 37 6 105 38 139 65 11 10 34 42 49 71
56 107 29 252 -60 325 -70 57 -103 63 -348 65 -120 0 -230 5 -244 10 -53 21
-65 123 -20 169 l24 24 296 0 c163 1 296 4 297 7 0 3 2 39 2 80 l2 76 -293 0
c-215 -1 -305 -4 -339 -14z"/>
<path d="M6255 2291 c-3 -2 -5 -52 -5 -110 l0 -107 -105 1 -105 1 0 -81 0 -81
100 -1 c55 0 102 -2 105 -4 2 -3 5 -118 6 -256 l2 -251 41 -4 c22 -1 59 -1 82
2 l40 5 0 235 c-1 129 0 244 2 255 3 19 11 20 139 19 108 -1 136 1 140 13 5
14 6 36 4 113 l-1 36 -142 -1 -141 0 -1 110 -1 110 -78 1 c-42 0 -80 -2 -82
-5z"/>
<path d="M6995 2288 c-80 -16 -145 -67 -180 -141 -19 -40 -23 -63 -21 -126 3
-91 30 -149 93 -198 62 -48 114 -57 353 -58 224 -1 248 -5 270 -45 23 -42 18
-92 -11 -124 l-27 -31 -331 -1 c-182 -1 -334 -3 -337 -6 -3 -3 -6 -38 -7 -77
-2 -60 1 -72 16 -77 10 -3 156 -6 326 -6 359 0 389 5 465 74 59 54 85 119 81
203 -4 105 -51 177 -145 227 -43 22 -58 23 -285 28 -258 5 -276 9 -292 57 -23
68 12 141 70 144 12 1 146 2 297 3 l275 1 0 80 1 81 -285 0 c-158 0 -304 -4
-326 -8z"/>
<path d="M1318 2072 c-14 -3 -16 -15 -15 -80 l2 -77 140 -2 c77 0 152 -2 168
-2 43 -2 48 -31 48 -284 l0 -228 82 3 82 3 0 240 c1 132 -3 251 -8 265 -30 80
-52 107 -118 141 -40 20 -59 22 -204 24 -88 0 -168 -1 -177 -3z"/>
<path d="M2476 2051 c-19 -14 -45 -34 -58 -43 -12 -10 -70 -57 -128 -105 -94
-79 -105 -92 -108 -124 -3 -34 3 -42 115 -152 236 -231 230 -226 276 -229 23
-2 76 -1 117 0 l74 4 -189 183 -190 183 22 19 c28 23 32 26 206 166 81 65 147
119 147 121 0 1 -56 2 -125 3 -121 0 -127 -1 -159 -26z"/>
<path d="M2954 2068 c-3 -4 -4 -39 -3 -77 l2 -70 166 0 c217 0 213 1 236 -17
18 -14 20 -27 21 -160 2 -200 15 -188 -207 -189 l-174 -1 -26 26 c-20 20 -26
33 -22 53 10 54 27 58 201 59 l159 1 2 79 2 80 -76 -4 c-41 -2 -75 1 -75 5 0
5 -5 5 -10 2 -6 -3 -54 -7 -108 -9 -65 -1 -107 -8 -127 -18 -159 -84 -163
-323 -7 -402 48 -24 84 -28 259 -27 211 0 241 7 305 73 27 28 47 53 44 55 -3
3 0 17 6 32 5 14 10 97 10 185 0 132 -3 165 -18 200 -25 55 -77 103 -128 118
-46 13 -424 19 -432 6z"/>
<path d="M3830 2064 c-75 -22 -108 -51 -142 -123 -19 -41 -21 -64 -22 -284 0
-131 1 -243 4 -247 5 -8 55 -13 125 -11 l40 1 -3 217 c-2 120 0 232 3 250 8
42 29 46 248 46 156 0 177 2 178 16 1 9 1 45 2 81 l0 65 -196 0 c-124 1 -212
-4 -237 -11z"/>
<path d="M4530 2065 c-78 -22 -142 -81 -158 -145 -3 -8 -6 -176 -7 -372 l-2
-358 38 -1 c22 0 55 -1 74 -1 19 -1 38 2 42 6 5 4 8 155 9 334 1 180 2 335 3
344 2 34 39 41 215 41 217 0 207 8 205 -177 -1 -180 9 -171 -187 -173 -86 -1
-160 -2 -164 -2 -5 -1 -8 -37 -8 -81 l0 -80 63 -1 c136 -2 253 1 282 7 44 9
111 50 133 82 35 49 43 97 43 249 1 171 -11 216 -68 275 -20 21 -53 43 -72 50
-45 15 -392 18 -441 3z"/>
<path d="M5381 2062 c-23 -8 -59 -31 -79 -52 -58 -59 -68 -101 -66 -286 2
-178 9 -207 67 -261 63 -59 131 -70 417 -64 l35 1 -1 63 c-1 34 -2 69 -3 77
-1 13 -25 15 -158 15 -208 0 -200 -7 -202 172 -1 80 3 140 10 155 12 27 59 56
59 37 0 -6 4 -8 9 -5 8 5 134 9 259 7 68 -1 97 -27 88 -79 -3 -19 -10 -40 -16
-46 -7 -7 -71 -12 -171 -13 -88 0 -163 -4 -166 -7 -7 -6 -4 -138 2 -144 2 -3
81 -4 175 -4 154 1 175 3 211 21 46 24 67 44 93 84 24 39 29 62 29 133 -1 91
-54 166 -139 195 -57 19 -397 20 -453 1z"/>
<path d="M8279 2031 c-30 -25 -75 -62 -99 -81 -208 -166 -209 -171 -84 -292
293 -284 261 -258 320 -259 74 -1 119 -1 152 0 24 1 7 21 -162 186 l-190 184
27 21 c15 12 33 27 40 33 6 7 78 65 160 130 81 64 147 119 147 121 0 1 -57 3
-128 3 l-127 -1 -56 -45z"/>
<path d="M8702 2072 c-9 -3 -12 -80 -12 -338 l0 -334 83 0 82 0 0 337 0 338
-70 1 c-39 0 -76 -1 -83 -4z"/>
</g>
</svg>
