<svg width="111" height="82" viewBox="0 0 111 82" fill="none" xmlns="http://www.w3.org/2000/svg">
<path fill-rule="evenodd" clip-rule="evenodd" d="M82.179 0.346628C80.7058 1.07956 80.4396 2.87539 81.5061 4.88647C82.565 6.8832 84.916 8.20336 88.2428 8.66919C90.8211 9.03033 92.7971 8.19252 92.7772 6.74632C92.7649 5.85149 92.534 5.29595 91.6672 4.07517C89.7873 1.42736 87.1763 -0.000333398 84.214 5.8399e-08C83.1929 5.8399e-08 82.7103 0.082197 82.179 0.346628ZM79.9129 2.84155C79.5172 4.82961 80.2827 7.0551 82.3298 9.86864C83.2896 11.1881 84.0967 11.9339 85.0214 12.3561C86.1732 12.8817 87.1551 12.6945 88.3213 11.7265C88.9867 11.1743 89.1967 11.2365 89.5177 12.0815C89.7953 12.8119 89.8084 12.8212 90.2365 12.5965C91.1446 12.1195 91.9985 10.8647 92.3913 9.42931C92.4903 9.06767 92.5466 8.74706 92.5164 8.71671C92.4862 8.68637 92.0247 8.7759 91.4907 8.91578C89.4371 9.45332 86.497 9.07701 84.1728 7.97911C82.5738 7.22383 80.9318 5.56472 80.5695 4.33826C80.4235 3.84458 80.3031 3.28538 80.3017 3.09564C80.3002 2.90607 80.2362 2.65098 80.1592 2.52893C80.0607 2.37287 79.9877 2.46558 79.9129 2.84155ZM79.1561 5.15907C78.8654 6.79434 78.889 9.6869 79.2053 11.1648C79.4753 12.4254 80.4263 14.6601 80.9374 15.2341C81.1199 15.4389 80.9928 15.3957 80.5713 15.1097C79.8928 14.6494 79.2443 14.5729 77.7561 14.7779C76.8417 14.9038 76.7619 15.0919 77.5668 15.2231C79.2898 15.504 81.6314 17.3024 81.6314 18.3444C81.6314 20.0105 79.8805 20.9722 76.1569 21.3515C73.9691 21.5743 73.2329 21.7578 71.6801 22.4679C70.9972 22.7802 69.4816 23.2917 68.3124 23.6045C65.883 24.2546 64.6996 24.7251 64.2659 25.2133C63.9723 25.5441 63.9731 25.5509 64.2956 25.4585C64.6493 25.3572 68.2797 24.6411 69.9359 24.346C70.4834 24.2484 72.4243 24.0565 74.2491 23.9193C78.0914 23.6307 80.0245 23.3314 82.4296 22.6527C84.2968 22.1257 87.2191 20.819 88.1833 20.0799C88.8087 19.6004 89.4967 18.5505 89.0688 18.7282C88.0386 19.1566 86.958 19.3691 86.244 19.2841C84.8299 19.1159 82.8699 17.8789 81.7725 16.4626L81.2248 15.7556L81.9197 16.3749C82.9597 17.3017 83.7768 17.7714 85.0225 18.158C87.1148 18.8076 88.6494 18.5021 89.7767 17.2117C90.2961 16.6173 91.0182 15.2138 90.8775 15.0726C90.8382 15.0329 90.3893 15.1923 89.88 15.4267C86.4646 16.9981 83.7909 15.7323 81.7899 11.5968C80.9723 9.90682 79.9497 6.65395 79.7289 5.04069C79.6632 4.56101 79.5534 4.13352 79.4847 4.09084C79.416 4.04816 79.2682 4.52884 79.1561 5.15907ZM73.4977 9.16821C70.6854 9.7781 68.288 10.7826 67.2458 11.7877L66.6181 12.3932L68.277 12.6973C69.1894 12.8646 70.7629 13.1874 71.7739 13.4148C74.4162 14.0092 76.241 14.1856 77.8459 14.0015C78.5915 13.9161 79.2732 13.7741 79.3608 13.686C79.6023 13.4433 78.3855 9.49066 77.9577 9.1282C77.4943 8.73572 75.4049 8.75456 73.4977 9.16821ZM81.5315 9.75343C81.9912 11.8018 84.3787 14.6649 86.0881 15.2178C87.1894 15.5739 88.2539 15.5852 89.0544 15.2491C89.7923 14.9392 90.1571 14.6267 90.7797 13.7716C91.4461 12.8564 91.3938 12.5853 90.6493 13.093C89.7888 13.6799 89.4762 13.6315 89.2712 12.8796C89.1775 12.5358 89.0811 12.0668 89.0572 11.8375C89.0169 11.4529 88.9706 11.4829 88.4578 12.2253C87.8525 13.1017 87.0738 13.6699 86.4771 13.6709C85.5212 13.6725 83.9465 12.4484 82.417 10.5145C81.5964 9.47716 81.4393 9.34194 81.5315 9.75343ZM61.7243 13.3563C61.04 13.7304 60.4542 14.0618 60.4223 14.0927C60.3907 14.1235 61.2492 14.1445 62.3301 14.1394C63.4112 14.1342 64.5942 14.2081 64.9592 14.3036C65.3241 14.399 66.3693 14.6766 67.2817 14.9207C69.3981 15.4867 73.9671 15.7021 75.0786 15.2883C75.8965 14.9837 75.8953 14.9834 72.6732 14.4191C71.2589 14.1716 69.5419 13.7924 68.8576 13.5763C66.9914 12.9875 65.3153 12.6708 64.0774 12.6735C63.0962 12.6757 62.8251 12.7542 61.7243 13.3563ZM60.389 14.5542C58.8359 14.9984 57.7448 16.0219 57.7435 17.0359C57.7428 17.4438 57.8258 17.5014 58.6967 17.6979C60.108 18.0163 65.005 17.9585 67.4476 17.5945C69.0929 17.3494 73.0517 16.3477 73.2793 16.1189C73.3137 16.0844 72.3888 16.0096 71.2241 15.9524C69.0424 15.8453 67.9145 15.6336 65.6227 14.9007C64.0191 14.388 61.5434 14.2241 60.389 14.5542ZM76.2399 16.0247C75.6012 16.0923 74.0416 16.4964 72.7742 16.9227C68.3391 18.4145 65.9054 18.7092 61.067 18.3404C59.5086 18.2215 58.1931 18.1654 58.1433 18.2154C58.0935 18.2652 58.2631 18.5033 58.5201 18.7444C59.5443 19.7053 62.9122 20.2751 66.685 20.1257C69.0287 20.033 69.349 19.9614 71.9267 18.9538C73.7277 18.2497 74.7098 18.083 75.6138 18.3276C76.6868 18.618 77.0167 18.9818 77.1121 19.9797L77.1952 20.8478L77.7958 20.7473C80.0046 20.3778 81.1337 19.6619 81.1337 18.6312C81.1337 17.7762 80.5285 16.9914 79.4748 16.4796C78.38 15.9479 77.7732 15.8627 76.2399 16.0247ZM91.503 16.2141C90.6561 18.6809 90.2015 19.6117 88.9062 21.5296C88.3719 22.3209 87.8313 23.2626 87.7052 23.6219L87.4757 24.2753L90.1597 24.4583C92.4338 24.6134 93.0706 24.7203 94.3294 25.1573C95.1466 25.441 96.4336 25.8534 97.1894 26.0736L98.5635 26.4741L98.4543 26.1166C98.3941 25.92 97.6134 24.2961 96.7191 22.5076C94.9246 18.9188 93.8369 17.3219 92.6473 16.5299C91.7793 15.9522 91.609 15.9052 91.503 16.2141ZM73.2337 19.0757C72.348 19.2916 70.7531 20.0407 68.7747 21.17C67.4354 21.9342 64.5955 22.8831 62.5537 23.2482C61.7782 23.3869 59.576 23.6931 57.6599 23.9283C51.882 24.6379 49.6667 25.0537 46.8769 25.9527C41.9934 27.5265 35.0703 32.6367 26.4975 40.9961C24.9312 42.5233 22.9297 45.1046 24.1654 44.0035C31.6098 37.3709 37.2959 32.7891 40.9841 30.4512C45.5506 27.5568 50.4418 26.1718 61.6873 24.5889C65.1353 24.1034 66.7397 23.6786 69.5703 22.5011C71.5415 21.6813 72.5474 21.4352 74.7014 21.2465C75.6843 21.1603 75.8681 21.0878 76.2447 20.6379C76.7764 20.0029 76.7402 19.35 76.1569 19.0549C75.6408 18.7938 74.352 18.8029 73.2337 19.0757ZM85.0355 22.522C80.9291 24.1936 78.7579 24.5859 72.1755 24.8453C66.9995 25.0494 64.6795 25.4756 62.85 26.5583C62.1055 26.9988 61.3493 28.006 61.7563 28.015C62.1541 28.0238 64.5242 30.3947 67.2488 33.5093C68.8469 35.3362 70.2132 36.7437 70.6038 36.9663C72.2478 37.902 74.4932 37.202 76.8503 35.0191C78.0954 33.8663 79.4293 32.2439 79.2669 32.0805C79.2219 32.0353 78.5056 32.086 77.675 32.193C75.4733 32.4768 74.7369 32.2567 68.5189 29.457C65.5599 28.1245 64.308 27.7731 63.0011 27.9078C61.8396 28.0273 61.8807 27.7922 63.0715 27.5051C64.8744 27.0705 66.2991 27.4683 70.8484 29.6764C72.5363 30.4957 74.4026 31.2905 74.9957 31.4427C77.9339 32.1967 80.739 31.0029 83.4396 27.8494C84.3183 26.8234 87.7694 21.8384 87.7694 21.5951C87.7694 21.4272 87.503 21.5176 85.0355 22.522ZM91.6839 26.0511C92.2349 26.6243 93.3376 27.8187 94.1345 28.7056C94.9313 29.5924 95.9082 30.5858 96.3055 30.9131L97.028 31.5079L97.3891 30.301C97.6992 29.2646 97.8784 28.9712 98.6556 28.2267L99.5607 27.3596L98.8492 27.177C98.4578 27.0765 97.0179 26.6632 95.6493 26.2585C93.2851 25.5594 91.1944 25.0169 90.8432 25.0115C90.7546 25.0102 91.1328 25.4781 91.6839 26.0511ZM99.0093 28.7636C98.1413 29.6359 97.7986 31.8417 98.2843 33.4288L98.4885 34.0957L98.8523 33.1307C99.0522 32.6 99.216 32.0965 99.216 32.0116C99.216 31.9268 99.6674 31.5493 100.219 31.1728C101.347 30.4027 101.367 30.2832 100.565 29.0939C100.015 28.2793 99.5824 28.1874 99.0093 28.7636ZM61.3022 29.067C61.1922 29.5275 61.1677 29.5467 61.107 29.2189C61.0688 29.0125 60.9786 28.8438 60.9064 28.8438C60.6115 28.8438 59.6878 30.9594 58.7538 33.7743C57.8802 36.4069 57.7407 37.0108 57.5836 38.8391C57.3538 41.5108 57.0244 42.2632 55.3095 44.0344C54.076 45.3082 54.0511 45.3499 54.5212 45.3499C55.177 45.3499 56.8575 44.854 58.7503 44.1021C62.6441 42.5552 63.8809 41.3477 63.8809 39.0934C63.8809 37.8439 63.6538 36.9821 62.6737 34.5125C61.6876 32.0281 61.2256 30.5786 61.2387 30.0109C61.2447 29.7585 61.3399 29.9355 61.4804 30.4594C61.608 30.9354 62.3075 32.5195 63.035 33.9795C64.4724 36.8646 64.8762 38.1064 64.8762 39.6426C64.8762 41.5558 64.2083 42.6686 62.5537 43.5125C60.2146 44.7056 57.0677 45.5264 51.356 46.4334C49.3487 46.7522 47.3331 47.1149 46.8769 47.2394L46.0474 47.4658L47.7314 47.5917C49.7069 47.7394 51.6571 47.6275 55.4204 47.1502C58.8918 46.7099 60.8671 46.706 61.6033 47.1382C62.6662 47.7621 62.8167 48.7775 62.0526 50.1707C61.7803 50.6672 61.5796 51.0955 61.6065 51.1225C61.7122 51.2287 63.3301 50.3782 63.8308 49.9532C65.2445 48.7535 66.3012 46.6207 66.8848 43.7886C67.1795 42.3588 67.2195 41.7265 67.1446 39.6811C66.9885 35.4142 65.8994 32.4161 63.6762 30.1329C63.0132 29.4522 62.2362 28.8153 61.9494 28.7176C61.4484 28.547 61.4232 28.5607 61.3022 29.067ZM100.342 31.7705C99.8692 32.0281 99.3818 33.2628 99.3818 34.2016C99.3818 34.6569 99.3958 34.6631 100.336 34.6298C100.86 34.6111 101.495 34.6536 101.746 34.7241L102.202 34.8523L102.198 33.8905C102.194 32.6287 101.71 31.5088 101.173 31.5181C100.964 31.5218 100.589 31.6353 100.342 31.7705ZM88.772 33.2059C88.4351 33.437 87.7853 34.2656 87.1961 35.216C85.5399 37.887 85.3833 38.0042 80.2394 40.4196C79.3367 40.8434 78.6367 41.2285 78.6834 41.2755C78.777 41.3696 84.6541 39.886 87.9353 38.9403C92.1574 37.7232 94.7369 36.3786 94.7369 35.3945C94.7369 34.4022 92.3878 33.023 90.4724 32.8908C89.4872 32.8228 89.2732 32.8624 88.772 33.2059ZM85.8261 34.5154C84.4344 35.1518 82.0731 36.7587 78.9771 39.1764C73.4189 43.5169 71.9107 44.5601 69.4383 45.7749L68.1111 46.4269L68.8862 46.4805C69.8497 46.5471 71.289 46.1803 72.217 45.6315C72.6048 45.4022 73.7208 44.5067 74.6969 43.6417C77.2788 41.3539 77.9673 40.8657 80.636 39.4314C83.3092 37.9947 83.6624 37.7709 84.8902 36.7365C85.646 36.0998 87.0675 34.2486 86.9149 34.1001C86.883 34.0692 86.3931 34.256 85.8261 34.5154ZM67.2608 34.7681C67.9154 36.4828 68.1108 37.5307 68.1043 39.2943C68.0998 40.5416 68.1548 41.1245 68.2702 41.0561C68.4028 40.9778 70.6171 39.1519 71.5683 38.3368C71.645 38.2711 71.3382 38.094 70.8867 37.9433C69.8646 37.602 68.9053 36.7889 68.0079 35.5032C67.3226 34.5214 67.0726 34.2753 67.2608 34.7681ZM83.2903 34.7061C79.7473 35.4552 75.7478 36.7859 73.2676 38.0407C71.2199 39.0766 68.7176 41.2992 67.7895 42.9066C67.3248 43.7114 66.6614 45.6211 66.7341 45.9449C66.7687 46.0993 67.4154 45.8491 68.8576 45.123C72.241 43.4193 74.96 41.651 78.3965 38.9188C79.2176 38.2659 80.8226 37.0702 81.9631 36.2614C83.1037 35.4526 84.1078 34.7283 84.1944 34.6518C84.381 34.4869 84.3055 34.4914 83.2903 34.7061ZM100.265 35.1188C99.9754 35.2602 99.6277 35.5004 99.4925 35.6528C99.1695 36.0166 97.5905 38.5869 97.1851 39.4087C96.5486 40.6992 97.2735 41.4731 98.5728 40.8904C100.375 40.0819 102.102 38.1254 102.301 36.6662C102.39 36.0183 102.348 35.845 102.013 35.4769C101.505 34.918 100.921 34.7985 100.265 35.1188ZM92.2485 38.1104C88.9477 39.6044 87.2462 40.1561 83.5391 40.9342C81.988 41.2599 80.1796 41.6772 79.5204 41.8618C78.4112 42.172 76.8205 42.7943 76.8205 42.9176C76.8205 42.9468 77.4076 43.3135 78.1251 43.7324C79.8459 44.7375 80.709 45.8364 81.1455 47.5784C81.2526 48.0064 81.4004 48.394 81.4738 48.4395C81.6806 48.5681 83.1597 47.5994 85.698 45.6733C86.9741 44.7048 88.9293 43.2939 90.0428 42.5378C92.3676 40.9591 93.5451 39.9447 94.2528 38.911C94.7621 38.1671 95.313 36.8369 95.1028 36.8591C95.0385 36.8659 93.7539 37.429 92.2485 38.1104ZM98.5054 41.3226C98.0384 41.4723 97.2878 41.9423 96.6806 42.4651C94.9286 43.9739 92.5255 45.7589 91.3795 46.4029C89.9796 47.1899 87.961 47.8513 84.1197 48.782C79.488 49.904 77.81 50.6587 77.324 51.8381C77.205 52.1269 77.1363 52.3905 77.1713 52.424C77.2065 52.4573 77.9709 52.1514 78.8704 51.7442C81.5177 50.5453 83.0733 50.1013 88.9804 48.8592C91.0152 48.4312 94.2317 46.3821 97.1116 43.6793C98.3357 42.5303 99.487 41.2185 99.3604 41.1171C99.3266 41.0901 98.9419 41.1825 98.5054 41.3226ZM75.354 43.891C74.3948 44.4132 71.3193 46.8943 71.4708 47.024C71.539 47.0825 71.8561 47.2286 72.1755 47.3486C73.5292 47.8573 74.3177 48.5275 75.246 49.9591C76.2974 51.5802 75.9447 51.5827 78.4796 49.9347C80.1722 48.8345 80.8019 48.2043 80.8019 47.6109C80.8019 46.7556 78.8049 44.3618 77.6249 43.8028C76.8107 43.417 76.1796 43.4415 75.354 43.891ZM21.3321 44.1744C21.0761 44.9849 22.3361 46.1835 23.4439 46.1835C24.2875 46.1835 24.5154 45.8319 24.1166 45.1456C23.6762 44.3877 22.823 43.8493 22.0627 43.8493C21.5858 43.8493 21.4101 43.9275 21.3321 44.1744ZM21.462 46.3919C21.0788 46.8147 20.6898 47.5135 20.7845 47.6089C20.819 47.6434 21.0863 47.5255 21.3786 47.3469C21.7877 47.0969 21.9101 46.9063 21.9101 46.5195C21.9101 45.9176 21.8957 45.9134 21.462 46.3919ZM55.918 47.617C53.9932 47.9612 53.1493 48.0177 49.9131 48.0197L46.1476 48.0219L46.8319 49.4549C47.7289 51.3339 47.8021 52.1754 47.22 53.9185C46.9789 54.64 46.8032 55.2479 46.8293 55.2694C46.9934 55.4042 50.2356 54.4154 52.1891 53.6346C53.4645 53.1249 55.6516 52.3968 57.0494 52.0165C60.0713 51.1947 60.5368 51.0113 61.2918 50.345C61.9862 49.7323 62.1591 49.0883 61.8371 48.3136C61.3308 47.0957 59.8255 46.9186 55.918 47.617ZM70.4016 48.2066C70.0191 48.3932 69.0637 49.1498 68.2785 49.888L66.8512 51.2304L67.2048 51.6087C67.7092 52.1484 69.3845 52.9377 70.9313 53.3647C73.2841 54.0139 76.4887 53.755 76.4887 52.9155C76.4887 52.3381 75.355 50.5473 74.3321 49.5092C72.6891 47.8415 71.773 47.5378 70.4016 48.2066ZM42.8955 48.2731C41.8796 48.5495 39.3729 49.8399 38.2543 50.6618L37.4288 51.2687L38.5861 51.3959C40.1518 51.5678 41.2473 51.9066 42.1941 52.511C43.1874 53.1456 43.3951 53.6389 43.1801 54.8534C42.9942 55.9033 43.1113 56.0785 43.8908 55.9164C45.1874 55.647 46.4126 54.5978 46.7968 53.4277C47.115 52.4585 46.9287 50.5486 46.4124 49.4879C45.7186 48.0627 44.8152 47.7506 42.8955 48.2731ZM65.2279 51.9706C64.9195 52.1234 64.4469 52.553 64.1773 52.9257C63.6448 53.6619 63.1649 54.6895 63.2933 54.8187C63.3376 54.863 63.6931 54.8182 64.0834 54.7192C66.2151 54.1778 67.3475 54.3292 71.3712 55.694L74.2996 56.6874H77.397H80.4942L80.1385 56.2329C79.5688 55.5051 77.9844 54.3972 77.1956 54.1753C76.6939 54.0342 75.8666 54.0051 74.5245 54.0813C71.922 54.2291 71.1762 54.0617 68.6689 52.7676C67.5157 52.1726 66.396 51.6872 66.1805 51.6894C65.965 51.6914 65.5363 51.8181 65.2279 51.9706ZM35.7669 52.6427L34.1128 53.4624L34.8739 53.9107C35.865 54.4942 38.3855 55.5906 39.5041 55.9244C41.6027 56.5508 42.8125 56.0895 42.8125 54.6628C42.8125 53.0684 41.3173 52.0293 38.8343 51.8979L37.421 51.8233L35.7669 52.6427ZM104.442 54.1855C103.438 54.3515 101.833 54.6811 100.875 54.9182C98.9306 55.3992 95.9824 55.8722 92.4973 56.2624C86.4507 56.9395 84.3022 57.0482 75.203 57.1387C68.5859 57.2046 66.038 57.2819 66.039 57.4172C66.04 57.5202 66.2691 58.0049 66.5483 58.4942C67.5874 60.3152 68.2229 60.3869 83.5391 60.4116C94.8707 60.4299 101.267 60.2597 104.439 59.8556C105.799 59.6823 107.318 59.0893 107.988 58.47C108.581 57.9227 108.996 56.8756 109 55.9181C109.005 54.6396 108.519 54.2195 106.723 53.9517C106.472 53.9144 105.445 54.0196 104.442 54.1855ZM31.1853 54.1885C29.5879 54.4601 26.9199 55.8539 25.8522 56.9748L25.398 57.4515L31.4925 57.7469C37.7628 58.0509 42.8484 58.1249 43.3799 57.9198C43.7392 57.7813 42.6266 57.3961 40.0753 56.7756C39.0179 56.5183 37.6627 56.0095 36.3377 55.3722C34.9736 54.716 33.8903 54.3122 33.1858 54.1973C32.5955 54.1011 32.0751 54.0306 32.0295 54.0406C31.9839 54.0507 31.604 54.1173 31.1853 54.1885ZM64.9049 55.1982C64.1597 55.2742 63.7541 55.4067 63.5066 55.6557L63.1579 56.006L63.5708 56.1639C64.5645 56.5435 67.8185 56.7471 72.0096 56.6916C72.8759 56.68 73.0264 56.6414 72.7747 56.4945C72.3387 56.2399 71.0565 55.9034 69.1065 55.5318C66.9897 55.1283 66.203 55.0658 64.9049 55.1982ZM6.6012 56.8571C5.09606 57.2428 3.92088 58.1211 3.39682 59.2522C3.1795 59.7213 3.00084 60.2299 3.00001 60.3821C2.99802 60.703 3.35469 60.7367 9.79994 61.0231C12.0353 61.1225 15.1707 61.2731 16.7674 61.3579C18.3641 61.4428 24.8215 61.7037 31.1171 61.9376C37.4127 62.1716 44.8406 62.4778 47.6234 62.6182C56.6821 63.0749 60.1387 63.1141 61.6508 62.7775C63.206 62.4312 63.9869 62.0602 64.8945 61.2361C66.1765 60.0718 66.3958 58.9432 65.532 57.9545C64.3419 56.5922 62.5539 56.483 56.8304 57.4235C50.5712 58.452 48.5129 58.5933 39.8265 58.5911C34.2092 58.5896 30.9852 58.5102 27.9652 58.2986C21.8457 57.8702 16.2586 57.3886 14.1266 57.106C11.7399 56.7896 7.42187 56.6469 6.6012 56.8571Z" fill="#bfbfbf"/>
<path d="M11.9453 75.7031C11.9453 76.1042 11.8932 76.4661 11.7891 76.7891C11.6901 77.1068 11.5573 77.388 11.3906 77.6328C11.224 77.8776 11.0286 78.0859 10.8047 78.2578C10.5807 78.4297 10.349 78.5703 10.1094 78.6797C9.86979 78.7891 9.625 78.8698 9.375 78.9219C9.13021 78.974 8.89844 79 8.67969 79H0.84375V76.9688H8.67969C9.07031 76.9688 9.3724 76.8542 9.58594 76.625C9.80469 76.3958 9.91406 76.0885 9.91406 75.7031C9.91406 75.5156 9.88542 75.3438 9.82812 75.1875C9.77083 75.0312 9.6875 74.8958 9.57812 74.7812C9.47396 74.6667 9.34375 74.5781 9.1875 74.5156C9.03646 74.4531 8.86719 74.4219 8.67969 74.4219H4.00781C3.67969 74.4219 3.32552 74.3646 2.94531 74.25C2.5651 74.1302 2.21094 73.9401 1.88281 73.6797C1.5599 73.4193 1.28906 73.0781 1.07031 72.6562C0.856771 72.2344 0.75 71.7188 0.75 71.1094C0.75 70.5 0.856771 69.987 1.07031 69.5703C1.28906 69.1484 1.5599 68.8073 1.88281 68.5469C2.21094 68.2812 2.5651 68.0911 2.94531 67.9766C3.32552 67.8568 3.67969 67.7969 4.00781 67.7969H10.9219V69.8281H4.00781C3.6224 69.8281 3.32031 69.9453 3.10156 70.1797C2.88802 70.4141 2.78125 70.724 2.78125 71.1094C2.78125 71.5 2.88802 71.8099 3.10156 72.0391C3.32031 72.263 3.6224 72.375 4.00781 72.375H8.67969H8.69531C8.91406 72.3802 9.14583 72.4115 9.39062 72.4688C9.63542 72.5208 9.8776 72.6042 10.1172 72.7188C10.362 72.8333 10.5938 72.9792 10.8125 73.1562C11.0312 73.3281 11.224 73.5365 11.3906 73.7812C11.5625 74.026 11.6979 74.3073 11.7969 74.625C11.8958 74.9427 11.9453 75.3021 11.9453 75.7031ZM22.7969 79H20.7656V73.3984C20.7656 73.1328 20.6979 72.9323 20.5625 72.7969C20.4271 72.6562 20.224 72.5859 19.9531 72.5859H16.2891V70.5547H19.9531C20.1458 70.5547 20.349 70.5781 20.5625 70.625C20.776 70.6667 20.987 70.7344 21.1953 70.8281C21.4089 70.9219 21.612 71.0443 21.8047 71.1953C21.9974 71.3411 22.1667 71.5208 22.3125 71.7344C22.4583 71.9427 22.5755 72.1849 22.6641 72.4609C22.7526 72.737 22.7969 73.0495 22.7969 73.3984V79ZM15.4688 79H13.4375V66.9844H15.4688V79ZM34.5781 79H31.6484L27.5547 75.0469C27.3255 74.8385 27.2188 74.5781 27.2344 74.2656C27.2448 74.1198 27.2812 73.9844 27.3438 73.8594C27.4115 73.7292 27.5026 73.6198 27.6172 73.5312L31.3281 70.5391H34.5781L29.7969 74.3906L34.5781 79ZM26.7188 79H24.6875V66.9844H26.7188V79ZM44.1562 76.2031C44.1562 76.4844 44.1068 76.7891 44.0078 77.1172C43.9089 77.4401 43.7474 77.7422 43.5234 78.0234C43.3047 78.2995 43.0156 78.5312 42.6562 78.7188C42.3021 78.9062 41.8698 79 41.3594 79H37.6953C37.4141 79 37.1094 78.9505 36.7812 78.8516C36.4583 78.7526 36.1562 78.5938 35.875 78.375C35.599 78.151 35.3672 77.862 35.1797 77.5078C34.9922 77.1484 34.8984 76.7135 34.8984 76.2031C34.8984 75.9219 34.9479 75.6172 35.0469 75.2891C35.1458 74.9609 35.3047 74.6589 35.5234 74.3828C35.7474 74.1016 36.0365 73.8672 36.3906 73.6797C36.75 73.4922 37.1849 73.3984 37.6953 73.3984H41.3594V75.3359H37.6953C37.4193 75.3359 37.2057 75.4219 37.0547 75.5938C36.9036 75.7604 36.8281 75.9688 36.8281 76.2188C36.8281 76.4844 36.9141 76.6927 37.0859 76.8438C37.263 76.9896 37.4714 77.0625 37.7109 77.0625H41.3594C41.6354 77.0625 41.849 76.9792 42 76.8125C42.151 76.6458 42.2266 76.4375 42.2266 76.1875V73.3516C42.2266 73.0859 42.1432 72.875 41.9766 72.7188C41.8151 72.5625 41.6094 72.4844 41.3594 72.4844H36.8984V70.5547H41.3594C41.6406 70.5547 41.9427 70.6042 42.2656 70.7031C42.5938 70.8021 42.8958 70.9635 43.1719 71.1875C43.4531 71.4062 43.6875 71.6953 43.875 72.0547C44.0625 72.4089 44.1562 72.8411 44.1562 73.3516V76.2031ZM53.2812 72.5859H48.7109C48.4349 72.5859 48.2266 72.6562 48.0859 72.7969C47.9453 72.9323 47.875 73.1328 47.875 73.3984V79H45.8438V73.3984C45.8438 73.0495 45.888 72.737 45.9766 72.4609C46.0651 72.1849 46.1823 71.9427 46.3281 71.7344C46.4792 71.5208 46.651 71.3411 46.8438 71.1953C47.0365 71.0443 47.237 70.9219 47.4453 70.8281C47.6589 70.7344 47.8724 70.6667 48.0859 70.625C48.3047 70.5781 48.5078 70.5547 48.6953 70.5547H53.2812V72.5859ZM63.8906 76.1484C63.8906 76.4974 63.8464 76.8125 63.7578 77.0938C63.6693 77.3698 63.5521 77.6146 63.4062 77.8281C63.2604 78.0365 63.0911 78.2161 62.8984 78.3672C62.7057 78.513 62.5026 78.6328 62.2891 78.7266C62.0807 78.8203 61.8698 78.8906 61.6562 78.9375C61.4427 78.9792 61.2396 79 61.0469 79H57.3828V76.9688H61.0469C61.3177 76.9688 61.5208 76.8984 61.6562 76.7578C61.7917 76.6172 61.8594 76.4141 61.8594 76.1484V73.4141C61.8594 73.1328 61.7891 72.9245 61.6484 72.7891C61.513 72.6536 61.3125 72.5859 61.0469 72.5859H57.3984C57.1224 72.5859 56.9141 72.6562 56.7734 72.7969C56.6328 72.9323 56.5625 73.1328 56.5625 73.3984V81.6406H54.5312V73.3984C54.5312 73.0495 54.5755 72.737 54.6641 72.4609C54.7526 72.1849 54.8698 71.9427 55.0156 71.7344C55.1667 71.5208 55.3385 71.3411 55.5312 71.1953C55.724 71.0443 55.9245 70.9219 56.1328 70.8281C56.3464 70.7344 56.5599 70.6667 56.7734 70.625C56.9922 70.5781 57.1953 70.5547 57.3828 70.5547H61.0469C61.3958 70.5547 61.7083 70.599 61.9844 70.6875C62.2604 70.776 62.5026 70.8932 62.7109 71.0391C62.9245 71.1849 63.1042 71.3542 63.25 71.5469C63.401 71.7396 63.5234 71.9427 63.6172 72.1562C63.7109 72.3646 63.7786 72.5755 63.8203 72.7891C63.8672 73.0026 63.8906 73.2057 63.8906 73.3984V76.1484ZM74.7109 73.3516C74.7109 73.6328 74.6615 73.9375 74.5625 74.2656C74.4635 74.5885 74.3021 74.8906 74.0781 75.1719C73.8594 75.4479 73.5703 75.6797 73.2109 75.8672C72.8568 76.0547 72.4245 76.1484 71.9141 76.1484H68.25V74.2188H71.9141C72.1901 74.2188 72.4036 74.1354 72.5547 73.9688C72.7057 73.7969 72.7812 73.5859 72.7812 73.3359C72.7812 73.0703 72.6953 72.862 72.5234 72.7109C72.3568 72.5599 72.1536 72.4844 71.9141 72.4844H68.25C67.974 72.4844 67.7604 72.5703 67.6094 72.7422C67.4583 72.9089 67.3828 73.1172 67.3828 73.3672V76.2031C67.3828 76.474 67.4661 76.6849 67.6328 76.8359C67.8047 76.987 68.0156 77.0625 68.2656 77.0625H71.9141V79H68.25C67.9688 79 67.6641 78.9505 67.3359 78.8516C67.013 78.7526 66.7109 78.5938 66.4297 78.375C66.1536 78.151 65.9219 77.862 65.7344 77.5078C65.5469 77.1484 65.4531 76.7135 65.4531 76.2031V73.3516C65.4531 73.0703 65.5026 72.7682 65.6016 72.4453C65.7005 72.1172 65.8594 71.8151 66.0781 71.5391C66.3021 71.2578 66.5911 71.0234 66.9453 70.8359C67.3047 70.6484 67.7396 70.5547 68.25 70.5547H71.9141C72.1953 70.5547 72.4974 70.6042 72.8203 70.7031C73.1484 70.8021 73.4505 70.9635 73.7266 71.1875C74.0078 71.4062 74.2422 71.6953 74.4297 72.0547C74.6172 72.4089 74.7109 72.8411 74.7109 73.3516ZM83.7578 72.5859H80.2109V79H78.1562V72.5859H75.5156V70.5547H78.1562V67.7969H80.2109V70.5547H83.7578V72.5859ZM96.0859 75.7031C96.0859 76.1042 96.0339 76.4661 95.9297 76.7891C95.8307 77.1068 95.6979 77.388 95.5312 77.6328C95.3646 77.8776 95.1693 78.0859 94.9453 78.2578C94.7214 78.4297 94.4896 78.5703 94.25 78.6797C94.0104 78.7891 93.7656 78.8698 93.5156 78.9219C93.2708 78.974 93.0391 79 92.8203 79H84.9844V76.9688H92.8203C93.2109 76.9688 93.513 76.8542 93.7266 76.625C93.9453 76.3958 94.0547 76.0885 94.0547 75.7031C94.0547 75.5156 94.026 75.3438 93.9688 75.1875C93.9115 75.0312 93.8281 74.8958 93.7188 74.7812C93.6146 74.6667 93.4844 74.5781 93.3281 74.5156C93.1771 74.4531 93.0078 74.4219 92.8203 74.4219H88.1484C87.8203 74.4219 87.4661 74.3646 87.0859 74.25C86.7057 74.1302 86.3516 73.9401 86.0234 73.6797C85.7005 73.4193 85.4297 73.0781 85.2109 72.6562C84.9974 72.2344 84.8906 71.7188 84.8906 71.1094C84.8906 70.5 84.9974 69.987 85.2109 69.5703C85.4297 69.1484 85.7005 68.8073 86.0234 68.5469C86.3516 68.2812 86.7057 68.0911 87.0859 67.9766C87.4661 67.8568 87.8203 67.7969 88.1484 67.7969H95.0625V69.8281H88.1484C87.763 69.8281 87.4609 69.9453 87.2422 70.1797C87.0286 70.4141 86.9219 70.724 86.9219 71.1094C86.9219 71.5 87.0286 71.8099 87.2422 72.0391C87.4609 72.263 87.763 72.375 88.1484 72.375H92.8203H92.8359C93.0547 72.3802 93.2865 72.4115 93.5312 72.4688C93.776 72.5208 94.0182 72.6042 94.2578 72.7188C94.5026 72.8333 94.7344 72.9792 94.9531 73.1562C95.1719 73.3281 95.3646 73.5365 95.5312 73.7812C95.7031 74.026 95.8385 74.3073 95.9375 74.625C96.0365 74.9427 96.0859 75.3021 96.0859 75.7031ZM107.469 79H104.539L100.445 75.0469C100.216 74.8385 100.109 74.5781 100.125 74.2656C100.135 74.1198 100.172 73.9844 100.234 73.8594C100.302 73.7292 100.393 73.6198 100.508 73.5312L104.219 70.5391H107.469L102.688 74.3906L107.469 79ZM99.6094 79H97.5781V66.9844H99.6094V79ZM110.672 68.8203H108.641V66.9844H110.672V68.8203ZM110.672 79H108.641V70.5547H110.672V79Z" fill="#bfbfbf"/>
</svg>
