<svg width="528" height="596" viewBox="0 0 528 596" fill="none" xmlns="http://www.w3.org/2000/svg">
<g clip-path="url(#clip0_32_151)">
<path fill-rule="evenodd" clip-rule="evenodd" d="M332.753 83.4229C340.392 88.9117 341.744 94.213 339.2 108.73L338.666 111.773L343.483 113.792C346.133 114.903 349.696 115.828 351.402 115.848C353.671 115.876 358.185 117.494 368.218 121.878C381.647 127.747 381.988 127.947 384.559 131.503C386.38 134.022 387.848 138.166 389.354 145.04C390.689 151.133 392.23 155.681 393.355 156.854C394.658 158.21 395.193 160.249 395.205 163.898C395.214 166.723 395.85 170.922 396.618 173.23C397.387 175.538 398.272 179.134 398.588 181.222C398.903 183.309 399.958 187.657 400.932 190.884C401.907 194.111 402.422 197.396 402.078 198.185C401.733 198.973 401.548 200.392 401.668 201.338C401.788 202.285 401.551 206.072 401.141 209.755C400.422 216.222 400.339 216.448 398.68 216.372C397.375 216.313 396.609 217.098 395.481 219.655C393.081 225.096 387.955 231.309 379.677 238.808C375.411 242.672 371.638 246.483 371.291 247.276C370.945 248.068 369.32 249.383 367.682 250.197C366.042 251.01 364.366 252.444 363.956 253.382C363.034 255.491 361.213 256.961 355.194 260.447L350.501 263.166L350.929 267.303C351.165 269.578 351.124 272.997 350.838 274.897L350.315 278.353L367.337 285.777C380.902 291.694 385.185 293.26 388.433 293.488C393.629 293.854 396.998 295.318 403.467 300.022C406.323 302.1 411.359 305.643 414.658 307.895C421.544 312.598 423.122 314.494 422.098 316.836C421.312 318.636 416.383 322.078 411.723 324.081L408.826 325.327L418.005 336.374C425.932 345.914 427.155 347.798 426.97 350.184L426.756 352.948L437.523 357.653C447.31 361.93 448.509 362.278 450.712 361.49C452.565 360.826 455.322 361.255 462.453 363.317C467.579 364.799 472.646 365.94 473.714 365.855C475.83 365.683 485.367 370.698 484.911 371.742C484.203 373.362 480.359 376.97 478.927 377.358C476.358 378.056 478.882 379.958 483.749 380.992C487.512 381.792 487.809 382 487.556 383.67C487.072 386.857 486.568 387.306 483.716 387.091L480.922 386.879L481.343 390.124C483.761 408.727 484.526 415.984 485.323 427.889C486.241 441.585 486.222 441.812 483.805 445.882C481.032 450.552 482.395 450.285 464.896 449.568L456.18 449.21L453.118 445.243C450.829 442.275 449.037 437.764 446.008 427.352C443.78 419.695 440.31 409.337 438.294 404.334L434.63 395.239L437.307 391.519C438.78 389.472 439.895 387.566 439.784 387.284C439.674 387.001 435.945 385.978 431.497 385.011C427.049 384.044 422.692 382.954 421.814 382.587C420.937 382.22 418.376 382.447 416.124 383.092L412.03 384.264L413.265 386.478C413.991 387.778 415.28 388.824 416.393 389.012C417.887 389.264 418.326 390.008 418.479 392.544C418.715 396.443 419.035 396.965 422.599 399.252C424.781 400.655 425.321 401.527 425.041 403.192C424.76 404.86 425.334 405.779 427.659 407.384C430.051 409.036 430.638 410.019 430.646 412.398C430.657 415.382 431.903 416.948 435.559 418.569C437.997 419.649 438.853 421.604 437.873 423.847C437.091 425.637 438.225 429.108 439.819 429.805C440.343 430.034 441.258 431.468 441.853 432.992C442.718 435.21 442.584 436.562 441.178 439.779C440.213 441.988 439.489 444.643 439.569 445.677C439.688 447.184 439.062 447.904 436.419 449.303C434.604 450.264 432.753 451.638 432.304 452.36C429.721 456.504 429.207 456.741 425.371 455.558C423.256 454.904 420.555 454.756 419.206 455.217C415.374 456.529 410.558 456.513 407.011 455.176C404.653 454.287 403.49 454.28 402.892 455.152C402.308 456.001 401.274 456.024 399.452 455.228C398.019 454.602 394.927 454.3 392.581 454.555C387.61 455.097 385.616 454.437 384.465 451.871C383.757 450.294 383.168 449.988 380.502 449.817C377.698 449.638 377.151 449.3 375.284 446.594L373.199 443.57L370.703 444.913C367.863 446.442 365.34 445.738 365.107 443.35C364.972 441.961 364.337 441.595 360.637 440.783C357.336 440.057 356.188 439.494 355.74 438.378C355.285 437.239 354.362 436.801 351.543 436.382C348.315 435.902 347.777 435.561 346.511 433.193L345.094 430.54L341.938 430.994C339.086 431.404 338.62 431.247 337.094 429.356C335.9 427.877 334.883 427.308 333.622 427.409C330.641 427.65 326.161 425.311 326.8 423.848C327.126 423.1 326.839 422.562 326.095 422.529C325.404 422.497 323.146 422.018 321.077 421.461C317.914 420.61 317.248 420.131 316.903 418.456C316.315 415.596 312.943 413.464 311.636 415.125C310.228 416.912 307.115 415.419 307.476 413.13C307.735 411.499 307.34 411.219 302.798 409.82C298.803 408.588 297.768 407.977 297.481 406.678C296.957 404.312 295.449 403.574 291.73 403.863L288.417 404.12L287.476 400.781C286.454 397.154 282.678 394.52 281.703 396.752C280.883 398.628 277.063 396.533 277.401 394.394C277.774 392.041 275.142 390.143 271.774 390.336C268.515 390.523 267.148 389.478 268.024 387.473C269.144 384.91 264.68 379.674 262.982 381.559C262.061 382.584 258.615 381.556 258.404 380.194C258.304 379.538 258.499 378.349 258.838 377.553C259.534 375.924 255.845 371.406 254.551 372.303C252.331 373.844 249.833 370 251.422 367.488C251.71 367.034 251.265 365.619 250.433 364.342C249.226 362.489 248.414 361.998 246.39 361.896C243.528 361.753 242.245 359.578 243.981 357.814C245.358 356.415 242.759 352.697 240.093 352.252C236.825 351.707 235.61 350.049 237.081 348.141C238.773 345.948 236.999 343.595 233.527 343.43C230.869 343.303 227.559 340.874 224.639 336.908C223.242 335.011 222.763 334.802 219.934 334.858C203.798 335.181 194.848 333.007 169.436 322.591C151.969 315.432 131.366 305.389 126.634 301.727C124.905 300.388 118.671 302.174 110.052 306.48C101.859 310.572 103.066 314.323 114.867 321.446C118.32 323.53 122.767 326.328 124.748 327.666C126.731 329.003 132.322 331.856 137.173 334.006C145.413 337.659 146.355 337.894 151.532 337.601C157.224 337.278 159.291 338.319 157.655 340.683C156.006 343.065 148.743 342.707 139.519 339.789C127.303 335.924 120.157 333.849 113.844 332.33C110.148 331.441 103.303 328.602 92.9028 323.647C79.4017 317.215 76.9118 315.772 73.1649 312.212C70.726 309.892 66.2613 306.768 62.8004 304.959C54.8137 300.783 50.4424 296.661 37.1462 280.769C26.5352 268.086 25.9209 267.136 22.2881 257.786C18.5367 248.128 16.312 235.127 17.8218 231.674C19.833 227.071 41.8109 231.451 45.571 237.204C47.2369 239.752 47.4978 243.358 46.8611 255.047C46.4598 262.407 46.5574 262.793 50.765 270.598C53.1386 275.001 55.4979 280.022 56.0078 281.757C56.9321 284.898 59.549 287.896 66.0225 293.224C70.4096 296.837 85.6512 303.952 89.3129 304.096C90.8264 304.156 93.1584 304.421 94.495 304.687L96.9235 305.167L99.227 299.196C100.885 294.898 101.857 293.241 102.697 293.28C103.431 293.314 103.994 292.55 104.219 291.217C104.414 290.051 105.223 288.586 106.015 287.961C107.343 286.911 106.916 286.456 100.504 282.066C96.6795 279.449 92.2811 276.575 90.7295 275.678C83.2519 271.363 70.3872 257.436 63.2654 245.946C59.2333 239.44 53.0295 224.003 50.9619 215.329C50.0823 211.638 50.037 208.804 50.8149 206.059C51.5285 203.543 51.5527 201.543 50.8813 200.561C49.5235 198.573 51.3087 194.354 53.8724 193.495C56.8454 192.499 66.8249 194.725 74.5832 198.116L81.6173 201.189L83.4794 205.514C84.7802 208.535 85.5563 214.021 86.0561 223.725L86.77 237.611L92.5081 247.818C95.6637 253.431 98.123 258.614 97.9739 259.334C97.8254 260.055 98.1987 260.86 98.8038 261.125C99.4096 261.389 102.575 264.063 105.84 267.067C109.819 270.728 112.933 272.937 115.289 273.771L118.804 275.014L122.269 270.677C124.175 268.291 125.52 266.182 125.261 265.99C124.999 265.797 123.157 264.881 121.166 263.956C117.939 262.454 116.687 260.916 109.603 249.762C97.154 230.16 93.7648 222.355 95.7382 217.837C96.5911 215.887 95.9186 214.762 92.83 212.972C88.9039 210.697 88.6676 210.147 90.3061 207.094C92.5591 202.894 95.0693 201.14 99.4731 200.693C101.636 200.472 103.597 199.855 103.83 199.32C104.064 198.786 106.16 198.27 108.489 198.173C110.817 198.077 113.778 197.285 115.069 196.415C116.358 195.545 118.043 194.74 118.812 194.628C119.581 194.515 123.595 193.256 127.732 191.83C134.718 189.421 157.243 185.857 167.972 185.462C172.131 185.308 172.416 185.156 171.83 183.402C171.251 181.665 171.588 181.245 175.869 178.373C182.412 173.982 193.683 167.544 195.973 166.89C197.029 166.588 201.011 164.545 204.821 162.347C215.093 156.424 218.563 155.508 228.677 156.055C234.475 156.368 246.395 158.226 246.851 158.887C247.114 159.269 246.662 160.811 245.846 162.315C244.472 164.842 244.534 165.193 246.655 166.95C248.06 168.116 249.16 170.145 249.491 172.191C250.129 176.11 250.381 176.29 254.07 175.457C255.615 175.108 258.121 175.098 259.643 175.435C262.176 175.993 262.337 176.213 261.545 178.025C260.684 179.994 261.545 181.552 264.063 182.582C264.789 182.879 269.323 181.753 274.137 180.079C282.523 177.164 282.94 176.901 284.092 173.775C285.063 171.141 285.634 170.547 287.054 170.695C288.661 170.863 290.076 168.497 289.402 166.768C289.283 166.465 290.551 165.457 292.218 164.527C294.293 163.37 295.693 161.824 296.652 159.63C297.645 157.356 298.92 155.994 301.032 154.944C302.672 154.131 304.378 152.633 304.824 151.615C305.271 150.597 306.834 148.923 308.297 147.894C310.466 146.37 310.98 145.557 311.073 143.49C311.138 142.077 312.149 139.359 313.362 137.341C315.34 134.049 315.384 133.726 313.852 133.728C312.927 133.73 310.779 133.31 309.081 132.796C306.222 131.931 305.765 132.107 302.908 135.176C299.891 138.417 299.767 138.455 297.328 136.885C294.078 134.792 291.305 129.373 290.798 124.119C290.467 120.682 290.641 119.899 291.764 119.774C296.832 119.208 296.851 119.151 294.566 111.694C293.382 107.829 291.901 104.289 291.274 103.827C290.648 103.365 290.069 102.55 289.989 102.017C289.904 101.454 287.378 101.185 283.994 101.378C280.778 101.56 277.914 101.608 277.629 101.483C277.344 101.359 277.903 99.9518 278.869 98.3562C281.326 94.3045 294.638 84.8675 303.002 81.2498C314.747 76.1703 323.552 76.8136 332.753 83.4229ZM309.722 104.998C310.509 106.887 310.54 106.875 310.409 104.727C310.334 103.493 309.964 102.603 309.586 102.752C309.208 102.9 309.269 103.911 309.722 104.998ZM301.435 101.607C299.346 101.736 297.497 102.16 297.325 102.553C297.154 102.945 296.253 103.566 295.326 103.931C293.827 104.521 293.777 104.953 294.882 107.785C295.978 110.594 296.614 111.15 300.214 112.441L304.301 113.907L306.872 110.756C309.403 107.653 309.42 107.561 307.955 104.764C306.148 101.315 306.157 101.319 301.435 101.607ZM304.543 116.696C304.733 117.185 309.933 112.243 310.25 111.273C310.358 110.943 309.078 111.929 307.407 113.463C305.736 114.995 304.446 116.451 304.543 116.696ZM348.452 136.042C348.348 137.03 349.499 139.528 351.011 141.594C352.524 143.66 353.842 146.007 353.941 146.811C354.599 152.162 359.812 162.476 360.761 160.303C360.954 159.86 360.753 159.34 360.313 159.147C359.05 158.595 355.274 149.365 355.082 146.361C354.888 143.334 354.8 143.36 360.604 144.642L364.009 145.394L361.462 143.937C359.765 142.967 358.017 142.694 356.219 143.121L353.523 143.761L351.193 140.014C349.912 137.954 349.113 135.694 349.419 134.994C349.725 134.294 349.676 133.841 349.309 133.984C348.942 134.128 348.557 135.054 348.452 136.042ZM337.19 142.305C337.553 143.392 338.996 145.767 340.395 147.584C343.421 151.511 343.058 150.127 339.616 144.614C336.75 140.024 336.28 139.577 337.19 142.305ZM390.617 170.696C390.656 172.932 390.993 174.144 391.366 173.389C392.302 171.497 392.252 164.884 391.309 165.85C390.889 166.28 390.577 168.46 390.617 170.696ZM368.454 163.093C364.803 163.039 362.704 164.448 361.05 168.067L359.867 170.654L359.933 166.471C359.968 164.169 359.732 162.844 359.405 163.526C358.405 165.613 358.329 170.272 359.279 171.211C360.032 171.955 359.814 172.404 357.933 173.979C356.698 175.014 354.85 175.927 353.826 176.011C352.803 176.093 351.609 176.976 351.173 177.972C350.666 179.132 349.553 179.798 348.076 179.821C345.778 179.86 340.857 183.122 341.317 184.301C341.449 184.642 342.089 184.355 342.736 183.664C344.395 181.891 348.437 180.17 349.673 180.71C350.295 180.982 351.109 180.256 351.702 178.898C353.156 175.57 356.399 176.216 356.122 179.777C355.932 182.223 357.289 184.651 358.563 184.15C358.888 184.022 358.724 183.729 358.2 183.5C356.871 182.919 357.112 176.639 358.532 174.797C359.519 173.518 360.292 173.527 363.476 174.855C368.065 176.767 372.95 178.079 376.922 178.463C381.972 178.952 379.79 177.74 373.826 176.743C370.718 176.223 366.511 174.942 364.48 173.895C360.845 172.022 360.803 171.946 361.78 169.078C362.993 165.52 366.138 163.664 370.486 163.943C372.172 164.05 373.112 163.914 372.574 163.64C372.036 163.366 370.181 163.12 368.454 163.093ZM345.406 154.859C345.334 155.022 345.681 155.911 346.176 156.834C346.992 158.354 347.031 158.339 346.602 156.667C346.15 154.909 345.688 154.212 345.406 154.859ZM387.788 181.38C385.331 187.692 385.3 187.729 381.767 188.815C376.012 190.583 365.563 194.338 359.91 196.67C357.02 197.864 352.849 199.128 350.642 199.48C348.434 199.831 347.363 200.197 348.262 200.293C349.161 200.389 350.247 200.621 350.674 200.807C351.104 200.995 354.881 199.801 359.07 198.157C363.26 196.513 371.034 193.639 376.346 191.771C386.885 188.067 388.289 186.805 390.344 179.187C391.948 173.243 390.459 174.521 387.788 181.38ZM347.345 160.034C347.422 160.582 348.084 161.286 348.816 161.598C349.963 162.087 350.03 161.989 349.304 160.89C348.204 159.224 347.166 158.77 347.345 160.034ZM310.841 148.528C310.392 149.574 313.375 157.359 314.396 157.806C314.94 158.043 314.521 155.964 313.468 153.187C311.473 147.929 311.261 147.552 310.841 148.528ZM305.682 161.142C306.95 163.98 308.295 166.18 308.672 166.031C309.049 165.882 308.826 165.063 308.176 164.211C307.526 163.359 306.414 161.106 305.704 159.205C304.995 157.305 304.181 155.803 303.897 155.867C303.612 155.931 304.416 158.305 305.682 161.142ZM324.516 171.536L321.946 175.977L317.438 174.645C313.071 173.355 312.918 173.385 312.558 175.608C311.736 180.684 311.085 181.657 308.092 182.289C306.471 182.631 304.882 183.516 304.558 184.256C304.235 184.994 303.078 186.145 301.987 186.812C299.568 188.294 299.664 188.341 305.483 188.549C308.047 188.639 311.564 189.333 313.297 190.091C317.851 192.081 324.095 192.947 324.654 191.666C324.915 191.07 325.845 190.894 326.72 191.276C327.597 191.659 328.728 191.55 329.234 191.036C329.741 190.52 331.455 190.174 333.042 190.265C334.63 190.356 335.563 190.067 335.115 189.623C334.491 189.003 334.743 188.548 336.211 187.648C338.88 186.017 339.127 184.991 337.341 182.995C336.49 182.045 335.536 179.664 335.219 177.705C334.652 174.188 331.003 168.809 328.416 167.677C327.371 167.22 326.532 168.05 324.516 171.536ZM298.521 168.201C299.317 170.344 300.417 172.292 300.962 172.53C301.507 172.769 301.076 170.928 300.005 168.44C297.639 162.947 296.496 162.763 298.521 168.201ZM306.327 169.528C306.273 169.653 307.304 171.857 308.62 174.428L311.011 179.1L309.344 174.474C307.932 170.557 306.735 168.595 306.327 169.528ZM341.144 200.921C341.05 201.138 341.843 201.244 342.908 201.158C343.972 201.072 344.92 200.825 345.015 200.609C345.109 200.393 344.316 200.286 343.251 200.372C342.187 200.459 341.239 200.705 341.144 200.921ZM232.862 163.106C229.794 163.329 225.729 163.354 223.827 163.159C220.515 162.822 220.328 162.676 219.406 159.703L218.443 156.598L218.767 159.282C219.152 162.45 218.726 163.743 217.478 163.198C216.254 162.663 203.99 163.918 204.237 164.553C204.482 165.183 208.712 165.205 213.274 164.602C215.181 164.35 220.67 164.282 225.474 164.449C232.097 164.68 235.494 164.266 239.525 162.735C242.45 161.624 244.968 160.424 245.124 160.068C245.279 159.712 243.838 160.16 241.922 161.06C240.007 161.962 235.928 162.883 232.862 163.106ZM334.172 203.616C331.838 204.503 329.74 205.662 329.508 206.191C329.277 206.72 329.707 208.311 330.463 209.727C331.643 211.934 331.615 212.38 330.266 212.85C328.268 213.546 321.337 213.264 319.377 212.408C318.557 212.049 317.197 210.356 316.354 208.647C315.111 206.125 314.526 205.624 313.252 205.994C312.388 206.243 311.741 206.872 311.814 207.389C312.075 209.228 309.409 211.594 307.446 211.266C306.357 211.085 302.371 208.99 298.59 206.61C294.467 204.016 291.083 202.337 290.136 202.413C288.866 202.516 284.577 206.142 278.802 211.996C278.447 212.355 279.35 213.997 280.811 215.643C285.293 220.698 288.862 226.58 288.271 227.935C287.879 228.829 288.598 229.795 290.626 231.097C292.984 232.612 293.71 233.803 294.415 237.319C295.756 243.996 297.703 249.687 298.602 249.558C299.827 249.382 305.42 244.159 307.228 241.503C308.106 240.213 309.502 238.821 310.331 238.412C311.159 238.001 312.98 236.27 314.378 234.563C315.776 232.857 317.631 231.108 318.503 230.675C319.373 230.243 320.424 229.114 320.837 228.167C321.833 225.888 329.492 216.316 331.95 214.276C333.019 213.39 335.319 211.062 337.063 209.102C339.575 206.278 340.14 205.213 339.784 203.972C339.163 201.808 338.967 201.795 334.172 203.616ZM317.521 196.461C317.142 196.725 317.345 197.165 317.973 197.44C318.6 197.714 319.242 197.643 319.4 197.282C319.557 196.922 319.355 196.483 318.949 196.305C318.543 196.128 317.901 196.198 317.521 196.461ZM310.627 193.33C311.515 193.94 313.101 194.634 314.154 194.871C315.206 195.107 314.479 194.607 312.539 193.759C310.6 192.912 309.738 192.718 310.627 193.33ZM302.676 190.699C302.601 190.869 303.267 191.325 304.154 191.713C305.042 192.1 305.708 191.989 305.633 191.464C305.512 190.602 303.002 189.953 302.676 190.699ZM230.02 167.933C223.666 167.201 217.132 166.772 215.502 166.978C213.872 167.185 208.19 167.866 202.877 168.492C197.563 169.117 193.31 169.875 193.426 170.174C193.647 170.739 196.95 170.479 209.523 168.913C213.595 168.406 218.793 168.045 221.075 168.111C225.833 168.251 236.529 169.557 236.71 170.021C236.777 170.193 235.323 170.459 233.479 170.613C231.635 170.766 229.992 171.2 229.828 171.574C229.495 172.337 233.596 172.222 239.985 171.289C244.183 170.677 246.309 169.354 243.192 169.293C242.301 169.276 236.374 168.664 230.02 167.933ZM305.029 198.131C302.772 197.892 301.737 198.048 302.665 198.488C303.573 198.92 305.728 199.275 307.454 199.277C311.475 199.282 310.202 198.681 305.029 198.131ZM247.99 177.851C247.49 178.359 247.164 180.006 247.264 181.513C247.471 184.623 249.667 190.255 250.198 189.038C250.391 188.598 250.123 187.288 249.602 186.13C248.298 183.221 248.638 182.887 252.465 183.319C260.032 184.172 260.581 182.033 253.58 178.973C250.274 177.529 248.631 177.2 247.99 177.851ZM330.465 230.359C324.894 242.233 325.586 241.88 332.441 229.35C335.282 224.156 338.088 219.273 338.676 218.5C339.287 217.697 338.733 217.856 337.383 218.871C335.597 220.214 333.908 223.019 330.465 230.359ZM253.307 182.185C250.527 182.227 248.163 182.223 248.053 182.175C247.942 182.128 248.07 181.13 248.337 179.96C248.812 177.873 248.915 177.872 253.591 179.969L258.361 182.107L253.307 182.185ZM261.419 184.974C260.945 186.79 260.034 187.316 257.675 187.137C256.232 187.027 254.08 187.772 252.844 188.807C250.827 190.497 250.69 190.835 251.408 192.371C252.995 195.767 257.213 200.059 260.57 201.692C266.764 204.704 267.473 204.808 269.665 203.025C271.755 201.327 271.752 201.305 269.44 200.674C268.157 200.325 266.247 198.977 265.196 197.68C263.493 195.575 263.181 195.429 262.298 196.326C261.016 197.629 259.448 196.912 258.824 194.739C258.407 193.281 258.613 192.954 260.172 192.604C261.805 192.238 262.064 191.778 262.458 188.555C262.703 186.556 262.606 184.79 262.244 184.633C261.881 184.474 261.51 184.627 261.419 184.974ZM218.134 171.531C214.759 172.938 211.49 174.668 210.87 175.378C210.249 176.088 209.131 176.45 208.384 176.184C207.25 175.779 207.239 175.865 208.312 176.707C209.43 177.583 209.144 177.849 206.137 178.73C203.422 179.526 202.629 180.171 202.465 181.72C202.205 184.176 203.639 184.826 212.597 186.312C216.397 186.943 223.873 188.931 229.209 190.729C238.759 193.949 242.039 195.614 236.479 194.422C234.92 194.087 229.507 193.189 224.45 192.425C219.393 191.662 211.815 190.488 207.61 189.819C203.405 189.148 200.064 188.854 200.184 189.164C200.413 189.748 218.844 192.733 234.203 194.67C239.069 195.284 244.411 196.034 246.075 196.339C250.37 197.123 248.41 196.263 235.109 191.531C228.667 189.237 219.721 186.641 215.229 185.758C210.739 184.875 206.194 183.98 205.131 183.771C202.027 183.156 203.941 180.286 207.84 179.707C209.624 179.443 215.186 177.529 220.199 175.455C225.212 173.381 227.757 172.2 225.854 172.83C223.742 173.531 222.119 173.575 221.684 172.944C221.173 172.203 221.846 171.674 224.058 171.075C226.537 170.404 226.862 170.116 225.707 169.607C224.917 169.259 221.509 170.125 218.134 171.531ZM220.314 173.488C220.265 174.555 218.966 175.401 216.029 176.283C213.714 176.978 211.548 177.436 211.218 177.3C210.889 177.163 212.539 175.791 214.884 174.251C219.474 171.238 220.425 171.103 220.314 173.488ZM195.829 173.551C195.138 173.797 196.138 174.314 198.495 174.927C204.909 176.596 207.131 176.483 201.837 174.757C199.141 173.876 196.437 173.334 195.829 173.551ZM187.181 176.728C184.046 178.497 180.28 180.149 178.811 180.4C175.489 180.969 175.666 181.905 179.085 181.848C181.07 181.815 181.867 182.157 182.722 183.41C183.325 184.293 183.967 184.676 184.148 184.262C184.33 183.848 184.041 182.93 183.505 182.223C182.661 181.105 183.305 180.474 188.408 177.412C191.639 175.474 194.41 173.596 194.565 173.24C194.92 172.427 194.21 172.764 187.181 176.728ZM234.911 198.568C234.664 198.643 235.418 199.122 236.585 199.633C237.753 200.143 239.159 201.607 239.712 202.887C240.265 204.168 241.987 206.189 243.542 207.382C245.096 208.576 249.312 212.136 252.911 215.296C259.91 221.44 261.444 222.129 271.484 223.63C278.037 224.609 278.828 224.663 278.616 224.117C278.514 223.858 275.146 223.017 271.131 222.249C261.173 220.343 259.658 219.57 250.629 211.783C240.447 203.002 239.752 202.263 240.366 200.859C240.76 199.957 240.237 199.538 238.12 199.057C236.602 198.712 235.158 198.492 234.911 198.568ZM230.461 197.893C228.624 198.195 229.861 198.735 232.421 198.749C233.65 198.755 233.89 198.569 233.127 198.201C232.49 197.894 231.291 197.756 230.461 197.893ZM218.909 195.723C213.491 195.031 200.323 194.972 185.943 195.573C181.16 195.774 181.431 196.329 188.631 201.073C191.71 203.101 193.805 205.015 193.77 205.768C193.703 207.2 192.626 206.99 180.54 203.198C158.848 196.391 159.602 196.535 146.675 196.754C143.468 196.81 136.911 196.721 132.105 196.558C122.573 196.233 118.118 196.53 117.686 197.517C117.533 197.868 118.616 198.074 120.093 197.975C121.571 197.877 130.739 197.806 140.463 197.817C156.294 197.835 159.015 198.093 166.418 200.273C170.965 201.613 178.987 203.922 184.243 205.404C189.499 206.887 193.889 208.135 193.998 208.179C194.108 208.223 194.51 207.543 194.891 206.67C195.706 204.802 194.232 203.116 188.667 199.554L184.655 196.987L190.817 196.768C202.283 196.363 208.21 196.411 217.791 196.986C228.243 197.613 228.799 196.987 218.909 195.723ZM179.247 189.071C169.916 189.863 157.169 190.918 150.92 191.416C144.671 191.913 139.446 192.574 139.311 192.884C139.062 193.457 147.204 192.967 162.317 191.503C177.055 190.074 191.762 188.978 195.585 189.024C197.935 189.051 198.741 188.802 197.763 188.35C196.909 187.954 188.576 188.28 179.247 189.071ZM321.79 250.206C321.771 250.842 322.142 250.477 322.614 249.396C323.087 248.315 323.102 247.796 322.649 248.242C322.194 248.686 321.807 249.571 321.79 250.206ZM340.476 265.393C338.737 271.752 337.626 277.655 338.213 277.424C338.844 277.176 342.43 261.801 341.91 261.573C341.718 261.49 341.074 263.208 340.476 265.393ZM318.41 260.345C318.048 261.908 318.065 263.323 318.448 263.49C318.841 263.663 319.306 262.558 319.525 260.925C319.737 259.348 320.323 256.97 320.825 255.643L321.741 253.228L320.404 255.365C319.668 256.541 318.771 258.782 318.41 260.345ZM337.939 265.689C337.876 266.82 337.334 269.637 336.736 271.951C336.138 274.263 336.06 275.601 336.565 274.923C337.847 273.2 339.624 264.319 338.764 263.943C338.356 263.765 338.006 264.507 337.939 265.689ZM231.221 220.718C227.599 219.609 219.42 216.699 213.046 214.252C206.672 211.804 200.797 209.868 199.992 209.948C198.915 210.055 199.089 210.346 200.646 211.048C201.81 211.572 205.472 215.209 208.781 219.129C216.022 227.704 217.001 228.695 217.376 227.838C217.535 227.473 215.007 224.191 211.757 220.543C208.508 216.894 206.093 213.741 206.391 213.534C206.688 213.328 210.65 214.534 215.193 216.214C219.736 217.895 227.754 220.67 233.011 222.382C238.268 224.094 243.078 225.858 243.7 226.301C244.323 226.745 239.021 227.437 231.918 227.838L219.004 228.567L217.584 232.808C214.462 242.135 211.353 252.759 211.586 253.303C211.912 254.065 216.952 239.622 217.412 236.607C217.608 235.315 218.39 233.197 219.147 231.897C220.444 229.672 221.294 229.497 233.862 228.868C241.197 228.5 247.781 227.906 248.491 227.546C249.878 226.846 245.225 225.006 231.221 220.718ZM317.188 268.557C316.883 270.587 316.826 272.171 317.064 272.078C317.301 271.984 317.773 270.236 318.111 268.194C318.449 266.152 318.505 264.568 318.235 264.674C317.966 264.78 317.495 266.527 317.188 268.557ZM365.276 292.418C350.259 291.662 349.914 291.695 349.547 293.876C349.341 295.101 349.254 296.315 349.356 296.574C349.456 296.833 353.592 298.102 358.546 299.397C363.5 300.692 371.498 302.817 376.32 304.118C389.016 307.547 393.445 308.353 386.694 306.008C383.798 305.001 379.519 303.741 377.185 303.206C374.852 302.672 369 301.163 364.182 299.853C359.365 298.543 354.242 297.169 352.799 296.797C350.719 296.261 350.23 295.775 350.439 294.456C350.709 292.754 350.311 292.755 378.957 294.392C380.345 294.471 381.868 294.268 382.341 293.939C382.836 293.595 382.656 293.309 381.915 293.266C381.208 293.224 373.72 292.842 365.276 292.418ZM348.203 281.764C348.165 282.586 347.231 286.708 346.128 290.921C345.025 295.135 342.565 305.063 340.659 312.983C338.755 320.905 336.561 329.951 335.786 333.088C335.009 336.224 334.622 338.899 334.926 339.032C335.525 339.294 336.599 335.459 340.183 320.265C340.843 317.464 341.59 314.421 341.842 313.501C342.096 312.582 343.686 306.115 345.379 299.131C347.069 292.147 348.757 285.196 349.128 283.685C349.5 282.173 349.459 280.787 349.039 280.603C348.617 280.419 348.242 280.941 348.203 281.764ZM334.818 280.708C334.223 282.894 333.737 285.524 333.738 286.555C333.74 288.419 334.944 284.839 336.14 279.413C337.011 275.462 335.972 276.481 334.818 280.708ZM411.018 312.29C408.021 311.512 402.773 310.103 399.357 309.16C393.483 307.538 390.559 307.172 393.407 308.417C397.02 309.996 418.582 315.484 419.582 315.079C420.378 314.757 420.073 314.47 418.602 314.157C417.428 313.908 414.015 313.067 411.018 312.29ZM336.218 284.808C335.103 290.095 335.625 291.699 336.848 286.744C338.423 280.362 338.71 278.456 337.971 279.256C337.556 279.706 336.767 282.205 336.218 284.808ZM315.343 281.325C314.719 285.449 314.41 288.744 314.655 288.648C314.9 288.551 315.625 285.092 316.265 280.963C316.905 276.832 317.215 273.537 316.953 273.639C316.692 273.743 315.966 277.202 315.343 281.325ZM184.665 221.527C181.048 223.342 176.699 225.605 175.002 226.553C173.304 227.501 168.487 230.007 164.298 232.123C160.108 234.238 156.776 236.214 156.892 236.513C157.01 236.814 161.885 234.653 167.727 231.713C191.01 219.995 190.943 220.023 193.916 220.707C195.475 221.065 197.035 221.769 197.382 222.272C197.728 222.774 198.6 234.781 199.318 248.956C200.037 263.13 200.922 274.856 201.284 275.014C201.647 275.173 201.299 263.23 200.512 248.476L199.08 221.648L195.161 219.937C191.29 218.247 191.16 218.266 184.665 221.527ZM155.26 205.52C155.215 205.628 154.485 212.576 153.638 220.96C152.79 229.343 151.944 236.564 151.757 237.006C151.367 237.92 143.933 234.488 131.14 227.49C126.56 224.985 120.5 221.926 117.674 220.69C114.848 219.455 110.996 217.504 109.117 216.356C106.175 214.558 105.81 214.014 106.491 212.455C106.927 211.459 107.009 210.246 106.673 209.76C106.274 209.181 105.775 209.811 105.231 211.58C104.247 214.774 104.763 215.517 110.534 219.223C112.939 220.768 119.291 225.456 124.65 229.64C130.008 233.825 136.922 239.148 140.015 241.47C146.776 246.545 146.91 246.072 135.891 256.113C131.752 259.885 129.029 262.779 129.84 262.545C131.857 261.96 146.081 248.273 146.484 246.528C146.82 245.074 146.602 244.887 126.903 229.822L117.459 222.6L123.364 225.105C126.612 226.484 134.288 230.301 140.42 233.59C146.554 236.878 151.86 239.455 152.213 239.316C153.051 238.985 156.696 205.919 155.931 205.581C155.608 205.438 155.307 205.411 155.26 205.52ZM135.467 203.018C130.357 202.601 129.612 203.126 129.206 207.436L128.906 210.62L133.841 212.777C138.973 215.02 143.398 215.129 150.399 213.189C153.108 212.438 153.444 212.086 153.292 210.159C153.131 208.086 152.796 207.865 146.49 205.677C142.844 204.413 137.883 203.216 135.467 203.018ZM332.155 293.118C330.826 297.811 330.352 302.138 331.405 299.968C332.241 298.244 334.182 289.09 333.751 288.901C333.553 288.815 332.836 290.714 332.155 293.118ZM152.277 210.805C152.242 211.534 149.52 212.323 145.194 212.859C139.343 213.585 137.479 213.43 134.061 211.937C130.092 210.202 129.971 210.049 130.394 207.292C130.823 204.499 130.929 204.44 135.497 204.372C140.953 204.293 152.376 208.672 152.277 210.805ZM333.208 300.033C332.492 304.022 331.655 308.328 331.345 309.6C328.337 321.96 326.922 331.471 328.649 327.705C328.977 326.989 329.631 324.115 330.102 321.318C330.572 318.522 331.181 315.278 331.454 314.11C331.728 312.942 332.857 307.44 333.964 301.882C335.07 296.325 336.054 291.489 336.149 291.135C336.244 290.781 335.913 291.007 335.415 291.635C334.916 292.265 333.922 296.043 333.208 300.033ZM393.336 319.646C389.714 318.536 381.059 315.8 374.104 313.565C367.148 311.329 361.222 309.593 360.933 309.706C360.135 310.02 364.184 311.608 372.782 314.351C377.062 315.717 386.39 318.767 393.511 321.127C400.632 323.488 406.73 325.314 407.061 325.183C407.968 324.826 400.775 321.924 393.336 319.646ZM123.65 202.66C122.48 202.638 118.018 202.182 113.734 201.648C105.955 200.676 103.679 201.275 104.484 204.081C104.847 205.347 105.701 205.722 110.249 206.613C126.875 209.869 125.829 209.917 126.636 205.861C127.189 203.074 126.858 202.719 123.65 202.66ZM260.017 262.687C259.849 263.072 265.187 271.882 276.285 289.538C280.676 296.523 284.987 303.735 285.862 305.564C287.555 309.098 290.9 313.616 291.617 313.335C291.853 313.241 290.409 310.449 288.408 307.13C283.45 298.905 271.605 279.587 269.106 275.651C267.985 273.886 267.238 272.375 267.444 272.295C267.651 272.212 271.087 276.066 275.08 280.857L282.339 289.568L293.911 295.126C300.275 298.183 306.487 300.79 307.714 300.919C309.022 301.056 304.553 298.757 296.908 295.363L283.873 289.573L272.601 276.231C261.931 263.601 260.357 261.908 260.017 262.687ZM125.318 205.682C124.354 207.89 123.879 207.898 113.717 205.875C102.376 203.617 102.354 200.594 113.694 202.535C116.764 203.061 120.818 203.563 122.706 203.65C126.079 203.806 126.123 203.84 125.318 205.682ZM182.579 231.032C179.896 231.882 175.811 237.905 177.855 237.997C178.576 238.028 179.55 237.664 180.02 237.185C181.232 235.954 185.813 237.041 187.281 238.908C187.961 239.774 188.182 241.246 187.773 242.181C187.235 243.412 187.37 243.75 188.262 243.398C190.063 242.69 189.574 239.16 187.447 237.514C186.496 236.778 184.384 235.87 182.755 235.495C179.54 234.755 179.354 233.718 182.232 232.586C184.694 231.617 188.208 233.359 189.083 235.98C189.907 238.452 191.061 239.332 191.144 237.553C191.223 235.867 188.381 231.983 186.42 231.097C185.502 230.683 183.774 230.654 182.579 231.032ZM348.963 305.847C347.376 305.838 347.449 305.989 349.453 306.862C350.747 307.425 353.516 308.296 355.608 308.798L359.409 309.709L355.118 307.782C352.757 306.723 349.988 305.852 348.963 305.847ZM313.288 292.363C313.02 293.92 311.856 298.993 310.702 303.637C309.546 308.281 308.474 313.247 308.32 314.672C307.929 318.28 307.29 319.465 306.031 318.916C305.437 318.656 304.28 318.783 303.46 319.196C301.456 320.208 302.999 320.876 306.112 320.344C308.346 319.962 308.474 319.761 309.272 315.405C309.728 312.908 311.028 307.056 312.16 302.402C314.179 294.097 314.813 289.987 314.121 289.685C313.93 289.602 313.555 290.806 313.288 292.363ZM328.632 309.545C328.038 312.727 326.529 317.7 325.278 320.597C323.464 324.802 323.309 325.641 324.511 324.757C325.909 323.73 327.94 318.512 329.063 313.065C331.027 303.537 331.306 301.6 330.563 302.608C330.096 303.242 329.227 306.364 328.632 309.545ZM465.706 370.047C463.109 371.53 461.064 372.947 461.16 373.197C461.408 373.829 475.24 377.118 476.092 376.747C476.77 376.452 471.054 374.626 465.968 373.514L463.441 372.961L466.588 371.175C470.919 368.718 471.862 367.978 471.089 367.64C470.725 367.481 468.303 368.564 465.706 370.047ZM207.327 265.609C205.915 270.113 204.533 274.315 204.258 274.946C203.981 275.578 204.042 276.22 204.393 276.373C204.744 276.526 206.326 272.479 207.911 267.378C209.495 262.279 211.11 257.191 211.498 256.074C212.201 254.052 212.199 254.049 211.05 255.732C210.414 256.662 208.74 261.107 207.327 265.609ZM174.711 239.53C173.413 240.286 171.131 245.708 171.74 246.591C172.018 246.995 172.986 246.943 173.89 246.475C175.327 245.732 175.332 245.614 173.938 245.541C172.745 245.478 172.517 245.054 173.037 243.863C173.42 242.986 173.991 242.641 174.305 243.097C174.619 243.553 175.112 243.386 175.401 242.728C176.052 241.235 179.02 240.944 181.689 242.111C183.13 242.74 183.837 243.925 184.149 246.228C184.525 249.017 184.688 249.227 185.336 247.75C186.692 244.661 185.106 242.5 180.135 240.661C177.658 239.746 175.217 239.236 174.711 239.53ZM344.221 318.236C343.878 318.37 361.643 326.367 383.698 336.004C413.269 348.926 423.902 353.292 424.192 352.628C424.485 351.959 414.381 347.412 384.714 334.86C362.785 325.582 344.563 318.101 344.221 318.236ZM178.845 248.794C180.479 250.777 181.994 252.33 182.212 252.245C183.183 251.863 179.65 246.837 177.863 246.056C176.23 245.343 176.407 245.833 178.845 248.794ZM449.44 367.853C448.95 368.563 449.116 369.272 449.847 369.591C450.573 369.909 451.373 369.458 451.795 368.492C452.632 366.577 450.683 366.047 449.44 367.853ZM289.156 297.464C288.879 298.097 290.526 301.939 292.815 306.003C296.242 312.086 297.617 313.748 300.601 315.41C305.127 317.929 307.134 317.55 307.447 314.116C307.57 312.772 307.964 310 308.324 307.953L308.98 304.232L299.318 300.273C291.469 297.055 289.564 296.529 289.156 297.464ZM410.154 352.714C409.216 354.86 409.801 355.522 411.902 354.695C413.976 353.879 414.327 352.196 412.58 351.433C411.43 350.931 410.784 351.273 410.154 352.714ZM61.6916 200.429L58.3876 200.379L59.3681 204.747C59.9066 207.148 60.1098 209.665 59.8174 210.336C58.5617 213.23 60.2324 217.86 64.3096 222.783C71.3836 231.325 81.5749 244.482 83.5467 247.618C84.5765 249.255 85.987 250.84 86.683 251.142C87.4227 251.462 87.2458 250.816 86.2533 249.581C81.6487 243.85 79.2003 235.283 77.9617 220.563C76.5763 204.124 77.2892 205.851 70.7093 202.976C67.4225 201.539 63.592 200.457 61.6916 200.429ZM164.339 255.593C163.525 257.59 163.483 258.093 164.225 256.948C166.584 253.309 167.014 253.174 167.782 255.833C168.183 257.219 168.706 257.936 168.946 257.427C169.185 256.919 169.124 256.13 168.809 255.675C168.495 255.219 168.589 254.042 169.02 253.059C169.449 252.075 169.662 250.916 169.493 250.482C168.946 249.079 165.669 252.327 164.339 255.593ZM175.26 255.073C176.03 256.621 175.893 258.594 174.757 262.307L173.196 267.412L165.875 271.677C160.052 275.067 157.993 275.817 155.816 275.34C153.112 274.748 149.33 275.716 151.183 276.525C151.667 276.736 152.207 276.578 152.384 276.173C152.562 275.768 153.881 275.818 155.316 276.284C157.504 276.994 159.167 276.437 165.649 272.819C172.789 268.834 173.542 268.173 175.616 264.068L177.859 259.629L177.905 264.587C177.959 270.476 178.646 270.847 179.103 265.234C179.408 261.488 176.849 254.043 174.993 253.273C174.558 253.092 174.679 253.903 175.26 255.073ZM55.8509 201.784C56.294 202.237 56.5069 202.954 56.3223 203.375C56.1376 203.797 55.7304 203.77 55.4155 203.314C55.1014 202.858 54.6807 202.861 54.4807 203.318C54.0198 204.372 55.3251 204.981 56.4201 204.221C57.4879 203.48 57.2425 201.751 56.0052 201.306C55.3123 201.055 55.2692 201.19 55.8509 201.784ZM155.113 255.837C152.614 256.323 148.494 256.685 145.96 256.642C143.426 256.6 141.221 256.863 141.062 257.228C140.902 257.594 141.922 257.901 143.329 257.913C147.057 257.942 159.074 256.474 159.921 255.887C161.254 254.961 159.699 254.945 155.113 255.837ZM208.408 278.44C208.525 278.663 212.127 283.235 216.415 288.6L224.209 298.356L231.17 300.76C238.564 303.313 245.627 304.958 242.397 303.374C241.412 302.891 237.154 301.449 232.937 300.171L225.266 297.847L217.199 287.76C212.763 282.212 208.921 277.755 208.664 277.855C208.407 277.953 208.292 278.217 208.408 278.44ZM285.218 315.02C268.572 310.155 263.81 308.873 263.232 309.1C262.355 309.445 266.627 311.096 273.076 312.902C276.277 313.799 283.329 315.821 288.745 317.395L298.593 320.256L301.413 324.716C302.964 327.17 305.22 330.927 306.429 333.066C307.66 335.248 308.979 336.707 309.434 336.392C309.881 336.083 309.664 335.092 308.956 334.189C308.245 333.286 305.817 329.445 303.558 325.654C300.09 319.834 299.051 318.677 296.886 318.222C295.476 317.924 290.225 316.484 285.218 315.02ZM319.116 334.634C315.328 333.498 314.879 333.514 316.402 334.734C318.143 336.131 332.944 341.332 333.997 340.917C334.767 340.615 324.247 336.173 319.116 334.634ZM247.331 304.533C245.084 304.171 245.876 304.608 250.341 306.188C253.676 307.369 257.777 308.556 259.456 308.826C261.703 309.187 260.911 308.751 256.446 307.171C253.111 305.99 249.01 304.803 247.331 304.533ZM177.09 275.851C177.065 276.587 177.332 276.482 177.77 275.583C178.166 274.769 178.183 274.224 177.81 274.371C177.435 274.519 177.111 275.185 177.09 275.851ZM176.285 281.058C176.093 283.53 175.73 284.135 173.92 284.988C154.331 294.216 155.987 293.678 154.153 291.411C152.56 289.443 152.584 289.195 154.6 286.659C157.749 282.704 158.044 279.514 155.365 278.39L153.211 277.485L154.854 279.6C156.582 281.827 155.888 285.126 153.33 286.824C152.263 287.533 152.161 287.425 152.701 286.16C153.057 285.328 153.07 284.758 152.729 284.892C152.389 285.026 151.935 286.176 151.722 287.449C151.369 289.542 153.55 293.474 155.547 294.347C155.975 294.534 160.901 292.48 166.495 289.782L176.661 284.877L177.207 281.263C177.506 279.275 177.473 277.758 177.133 277.893C176.791 278.026 176.41 279.451 176.285 281.058ZM393.762 384.944C392.425 386.747 388.755 386.895 385.093 385.294C380.214 383.162 376.973 377.564 378.743 374.328C379.254 373.393 379.379 372.499 379.019 372.342C378.66 372.186 377.916 373.087 377.367 374.346C375.46 378.709 381.475 386.481 387.903 387.96C391.353 388.753 395.892 385.468 397.782 380.813L399.004 377.799L396.929 380.637C395.787 382.197 394.362 384.135 393.762 384.944ZM129.927 270.287C128.803 272.221 128.912 272.41 131.924 273.726C135.591 275.329 136.857 274.092 134.882 270.837C133.198 268.063 131.34 267.856 129.927 270.287ZM138.947 275.096C139.091 276.936 138.719 277.337 136.126 278.139C133.938 278.815 133.269 279.398 133.628 280.315C133.983 281.225 133.757 281.748 132.8 282.231C131.746 282.763 132.095 283.162 134.549 284.235C137.186 285.387 138.385 285.263 143.164 283.34C146.217 282.112 148.592 280.79 148.44 280.401C148.224 279.845 142.443 275.36 139.352 273.349C139.038 273.145 138.856 273.932 138.947 275.096ZM232.984 320.62C229.942 320.794 225.51 321.815 223.139 322.89L218.825 324.845L219.03 327.958C219.143 329.67 219.561 330.71 219.961 330.27C220.361 329.829 220.614 328.527 220.523 327.373C220.381 325.55 220.856 325.07 224.175 323.685C229.662 321.395 236.27 321.197 240.823 323.186C245.228 325.111 255.547 333.482 259.552 338.379C261.078 340.245 265.13 345.774 268.558 350.667C271.986 355.558 274.905 359.612 275.047 359.673C275.189 359.735 277.875 363.352 281.018 367.709C287.886 377.234 294.208 383.844 302.052 389.697C305.963 392.615 303.708 390.033 296.389 383.212C288.668 376.017 275.492 359.328 265.601 344.218C260.305 336.124 259.137 334.871 251.941 329.554C247.613 326.356 243.074 323.14 241.854 322.407C240.634 321.675 239.384 320.903 239.076 320.691C238.77 320.48 236.028 320.447 232.984 320.62ZM126.229 276.62C125.815 278.436 128.958 280.655 129.662 279.044C130.319 277.54 129.838 276.559 128.062 275.783C127.063 275.347 126.456 275.624 126.229 276.62ZM98.6851 263.692C98.3216 263.944 98.1167 264.798 98.2279 265.591C98.3818 266.68 98.7496 266.907 99.7319 266.52C100.449 266.238 100.965 265.519 100.882 264.923C100.701 263.648 99.6215 263.043 98.6851 263.692ZM143.447 287.045C143.78 287.899 145.757 287.068 146.287 285.854C146.756 284.781 146.557 284.741 145.071 285.61C144.093 286.182 143.362 286.827 143.447 287.045ZM25.9765 235.123C24.1601 235.838 24.0824 236.013 24.7199 237.924C25.0938 239.045 25.2815 240.234 25.1353 240.568C24.99 240.899 24.915 242.638 24.9681 244.429C25.0606 247.499 27.1091 251.301 33.1472 259.612C34.4295 261.376 37.5151 265.962 40.0027 269.802C44.5499 276.821 49.397 282.038 48.5152 278.965C48.2825 278.152 46.8324 275.184 45.2929 272.368C42.1377 266.597 41.3475 261.89 41.812 251.654C42.3498 239.838 42.4254 239.992 34.5985 236.954C29.6141 235.019 27.4213 234.554 25.9765 235.123ZM157.541 295.516C155.795 295.908 155.776 296.134 157.229 299.087C159.382 303.455 165.778 307.505 166.789 305.139C167.155 304.283 161.402 296.169 159.829 295.324C159.596 295.199 158.567 295.285 157.541 295.516ZM382.101 394.367C381.607 394.71 381.376 395.438 381.589 395.984C382.142 397.401 385.785 397.797 386.352 396.501C386.917 395.208 383.42 393.451 382.101 394.367ZM20.8755 236.809C19.821 237.88 20.0683 238.889 21.5431 239.533C22.1171 239.784 22.8965 239.282 23.2747 238.418C24.0561 236.63 22.2454 235.417 20.8755 236.809ZM146.033 293.246C145.011 294.733 146.795 296.817 148.512 296.141C150.231 295.465 150.13 292.719 148.374 292.324C147.56 292.141 146.506 292.556 146.033 293.246ZM149.01 294.252C148.612 294.696 148.041 294.92 147.743 294.752C146.848 294.244 147.501 293.246 148.659 293.35C149.252 293.403 149.41 293.808 149.01 294.252ZM386.576 405.602C385.725 406.775 384.704 407.593 384.308 407.419C382.762 406.744 383.045 408.678 384.881 411.338C386.264 413.344 387.557 414.293 389.475 414.71C390.942 415.029 392.223 415.107 392.32 414.884C392.761 413.874 389.925 404.257 389.075 403.886C388.552 403.657 387.426 404.429 386.576 405.602ZM316.355 373.994C311.938 374.171 309.466 375.935 307.585 380.255C304.88 386.46 308.442 393.85 314.848 395.323C318.168 396.087 324.902 393.876 326.042 391.647C329.334 385.215 329.33 381.216 326.031 377.652C323.314 374.717 320.916 373.811 316.355 373.994ZM422.89 422.536C418.305 423.863 413.313 432.366 413.546 438.451C413.815 445.482 417.905 450.923 423.967 452.317C428.552 453.372 433.969 449.867 436.42 444.261C438.951 438.468 437.59 428.588 433.901 425.978C431.118 424.01 424.712 422.008 422.89 422.536ZM364.481 396.804C361.443 396.462 357.893 395.972 356.594 395.716C355.294 395.459 354.078 395.6 353.89 396.031C353.701 396.462 353.981 399.302 354.513 402.344L355.477 407.874L360.114 409.346C363.946 410.564 365.095 411.314 366.743 413.671C369.375 417.437 379.508 422.164 381.219 420.426C381.94 419.694 381.824 418.489 380.866 416.761C380.081 415.344 378.407 411.944 377.145 409.204C375.883 406.464 374.508 404.073 374.089 403.89C373.67 403.706 372.886 402.311 372.346 400.787C371.168 397.467 371.39 397.58 364.481 396.804ZM341.603 387.233C334.211 387.173 328.788 393.033 329.774 400.017C330.501 405.166 333.571 408.235 338.705 408.95C342.957 409.541 346.419 407.797 349.257 403.631C351.023 401.042 351.779 395.793 350.697 393.635C350.143 392.529 346.029 388.169 344.802 387.388C344.689 387.317 343.25 387.246 341.603 387.233ZM322.126 384.06C323.722 387.045 322.932 389.505 320.309 389.717C315.563 390.1 312.68 385.893 315.476 382.665C317.91 379.852 320.125 380.316 322.126 384.06ZM345.459 396.836C346.329 399.441 345.568 401.061 343.084 401.898C340.374 402.812 338.64 401.904 338.118 399.297C337.641 396.915 338.798 395.189 341.336 394.492C343.599 393.871 344.674 394.483 345.459 396.836ZM430.353 435.564C431.219 437.786 429.953 440.82 427.912 441.412C426.702 441.763 425.986 441.422 424.628 439.849C422.521 437.407 423.18 433.963 425.872 433.359C428.307 432.812 429.51 433.405 430.353 435.564ZM319.326 401.433C320.749 402.892 332.383 409.348 331.236 408.04C330.494 407.196 322.301 402.137 319.584 400.846L318.038 400.111L319.326 401.433ZM55.6783 288.152C55.0085 289.683 55.6145 290.563 56.9711 290.029C57.8746 289.674 57.9458 287.271 57.0651 286.885C56.6801 286.717 56.0558 287.288 55.6783 288.152ZM350.22 418.312C377.953 432.305 396.401 441.729 412.79 450.276C417.203 452.577 418.472 453.015 417.414 451.872C416.613 451.007 406.266 445.369 394.421 439.343C382.577 433.317 369.643 426.676 365.68 424.584C361.718 422.491 352.66 418.228 345.552 415.108L332.63 409.437L350.22 418.312ZM95.8361 309.46C94.4909 309.691 94.4154 309.863 95.1598 311.008C96.2407 312.67 97.6363 313.286 98.6814 312.56C100.696 311.163 98.6838 308.97 95.8361 309.46ZM97.8494 311.261C97.6599 311.693 97.1318 311.884 96.6755 311.684C96.2199 311.485 96.2184 311.063 96.6737 310.747C97.1291 310.431 97.6565 310.241 97.8469 310.324C98.038 310.407 98.0382 310.828 97.8494 311.261Z" fill="rgba(3, 3, 3, 1)"/>
</g>
<defs>
<clipPath id="clip0_32_151">
<rect width="478" height="359" fill="white" transform="matrix(-0.669622 -0.742702 -0.742702 0.669622 586.709 355.011)"/>
</clipPath>
</defs>
</svg>
